<svg xmlns="http://www.w3.org/2000/svg" viewBox="0 0 365.5 162.2"><path d="M97.3 21.2L84.8 71.3l36.7 5.2c.6-3.3 1-6.6 1-10.1-.1-19-10.1-35.8-25.2-45.2M48.9 84.9c-.9-1.7-.8-3.8.2-5.4l40.5-62.4c-6.4-2.7-13.4-4.2-20.7-4.2-29.6 0-53.6 24-53.6 53.5 0 29.6 24 53.5 53.6 53.5 22 0 40.9-13.3 49.1-32.3H53.6c-1.9.1-3.7-1-4.7-2.7m101-7.1c0 3.1 1.3 5.4 3.2 6.9 1.8 1.4 4.4 2.1 7.2 2.1 3.7 0 9.1-1.7 9.1-6.6 0-4.8-6-5.7-9.4-6.6-12.2-3.2-27.4-3.6-27.4-20.3 0-14.9 15.3-19 26.9-19 12.9 0 26.5 3.9 27.1 20.1h-17.8c0-2.6-.9-4.3-2.5-5.4-1.6-1.1-3.7-1.6-6.1-1.6-3.2 0-8.3.4-8.3 4.7 0 5.9 12.9 6.9 21.8 9 11.9 2.5 15 11.6 15 16.7 0 16.6-15 22.1-28.3 22.1-14 0-28.3-4.9-28.8-22.2h18.3zM233.6 59c-.1-5.3-4.5-9-9.4-9-10.8 0-12.5 9.7-12.5 18.3 0 8 3.3 16.3 11.5 16.3 6.7 0 10.1-4.1 11-10.6h18.7c-1.7 16.6-14 26.2-29.6 26.2-17.7 0-30.9-12.8-30.9-31.8 0-19.7 11.9-33.8 30.9-33.8 14.6 0 27.7 8.1 29.1 24.5h-18.8zM258 36.2h18.7v8.5h.2c3.5-6.2 9.8-10.3 16.9-10.3 7.4 0 14 2.5 17.1 10 4.7-6.6 10.4-10 18.4-10 18.7 0 20.8 14.9 20.8 26.8v37.1h-19.3V61.8c0-6.7-3.1-10.6-8.1-10.6-8.3 0-9.1 6.7-9.1 16.7v30.4h-19.3V63c0-7.3-2-11.8-7.3-11.8-6.9 0-9.9 4.2-9.9 16.9v30.2H258V36.2zm91.9 94.1h-2.1l-3.5 10.4-3.6-10.4h-2.1l4.7 12.7-.9 2.5c-.4 1.2-.8 1.6-2.1 1.6h-.6v1.7h.8c.9 0 1.8-.2 2.5-.9.4-.3.7-.8.9-1.5l6-16.1zm-15.5 6.4c0 2.4-.4 4.9-3.2 4.9-2.8 0-3.2-2.4-3.2-4.9 0-2.4.4-4.9 3.2-4.9 2.8.1 3.2 2.5 3.2 4.9m1.9 7v-13.4h-1.9v1.5c-1.1-1.4-2.2-1.7-3.6-1.7-1.3 0-2.5.4-3.2 1.1-1.3 1.3-1.6 3.3-1.6 5.4 0 2.1.3 4.1 1.6 5.4.7.7 1.8 1.2 3.1 1.2 1.4 0 2.6-.3 3.6-1.7v2c0 2.2-1.1 4-3.6 4-1.5 0-2.2-.4-3.1-1.3l-1.2 1.2c1.4 1.2 2.4 1.7 4.4 1.7 3.5.1 5.5-2.2 5.5-5.4m-15.2-6.9c0 1.4-.1 3.1-1 4-.6.6-1.4.9-2.4.9s-1.7-.3-2.3-.9c-.9-.9-1.1-2.6-1.1-4s.1-3.1 1.1-4c.6-.6 1.4-.9 2.3-.9s1.8.3 2.4.9c.9.9 1 2.6 1 4m1.9 0c0-2-.3-3.8-1.6-5.2-.9-.9-2.1-1.5-3.7-1.5s-2.8.6-3.7 1.5c-1.3 1.3-1.6 3.2-1.6 5.2s.3 3.8 1.6 5.2c.9.9 2.1 1.5 3.7 1.5s2.8-.6 3.7-1.5c1.3-1.4 1.6-3.2 1.6-5.2m-12.3 6.5v-1.6h-1c-1.3 0-1.7-.6-1.7-1.9v-15.2h-1.9v15.3c0 2 1 3.4 3.3 3.4h1.3zm-10.3-6.5c0 1.4-.1 3.1-1 4-.6.6-1.4.9-2.4.9s-1.7-.3-2.3-.9c-.9-.9-1.1-2.6-1.1-4s.1-3.1 1.1-4c.6-.6 1.4-.9 2.3-.9s1.8.3 2.4.9c1 .9 1 2.6 1 4m1.9 0c0-2-.3-3.8-1.6-5.2-.9-.9-2.1-1.5-3.7-1.5s-2.8.6-3.7 1.5c-1.3 1.3-1.6 3.2-1.6 5.2s.3 3.8 1.6 5.2c.9.9 2.1 1.5 3.7 1.5s2.8-.6 3.7-1.5c1.4-1.4 1.6-3.2 1.6-5.2m-14.2 6.5V135c0-1.5-.4-2.7-1.3-3.6-.8-.8-1.9-1.2-3.3-1.2s-2.7.5-3.6 1.6v-1.4H278v13h1.9v-8c0-2.3 1.3-3.5 3.2-3.5 2 0 3.2 1.2 3.2 3.5v8h1.8zm-14.5 0V135c0-2.9-1.7-4.8-4.7-4.8-1.4 0-2.7.5-3.6 1.6v-7.2h-1.9v18.7h1.9v-8c0-2.2 1.3-3.4 3.2-3.4 1.9 0 3.2 1.2 3.2 3.4v8h1.9zm-13.5-1.8l-1.3-1.2c-1 1.1-1.7 1.5-3 1.5s-2.3-.5-3-1.5c-.6-.8-.8-1.8-.8-3.5 0-1.6.2-2.6.8-3.5.7-1 1.7-1.5 3-1.5 1.2 0 2 .4 3 1.4l1.3-1.2c-1.3-1.4-2.5-1.9-4.3-1.9-3.3 0-5.7 2.2-5.7 6.6 0 4.4 2.5 6.6 5.7 6.6 1.8.1 3-.3 4.3-1.8m-14.9-5.6h-6.8c.1-1.1.1-1.5.4-2.2.5-1.2 1.7-1.9 3-1.9 1.4 0 2.5.8 3 1.9.3.7.3 1.1.4 2.2m1.9 1.4v-.9c0-3.8-2-6.3-5.3-6.3s-5.3 2.4-5.3 6.6c0 4.6 2.2 6.6 5.7 6.6 2.2 0 3.4-.7 4.7-2l-1.3-1.1c-1 1-1.9 1.5-3.4 1.5-2.5 0-3.8-1.6-3.8-4.5h8.7zm-13.2 6v-1.6h-1c-1.2 0-1.8-.7-1.8-1.9v-7.9h2.8v-1.4h-2.8v-4.1h-1.9v4.1h-1.6v1.4h1.6v8c0 1.9 1.1 3.5 3.3 3.5h1.4zm-17.6-6.6c0 2.4-.4 4.9-3.2 4.9-2.8 0-3.2-2.4-3.2-4.9 0-2.4.4-4.9 3.2-4.9 2.8.1 3.2 2.5 3.2 4.9m1.9 7v-13.4h-1.9v1.5c-1.1-1.4-2.2-1.7-3.6-1.7-1.3 0-2.5.4-3.2 1.1-1.3 1.3-1.6 3.3-1.6 5.4 0 2.1.3 4.1 1.6 5.4.7.7 1.8 1.2 3.1 1.2 1.4 0 2.6-.3 3.6-1.7v2c0 2.2-1.1 4-3.6 4-1.5 0-2.2-.4-3.1-1.3l-1.2 1.2c1.4 1.2 2.4 1.7 4.4 1.7 3.5.1 5.5-2.2 5.5-5.4m-13.9-.4V135c0-1.5-.4-2.7-1.3-3.6-.8-.8-1.9-1.2-3.3-1.2s-2.7.5-3.6 1.6v-1.4h-1.9v13h1.9v-8c0-2.3 1.3-3.5 3.2-3.5 2 0 3.2 1.2 3.2 3.5v8h1.8zm-14.7-13h-1.9v12.9h1.9v-12.9zm.2-5.8h-2.1v2.1h2.1v-2.1zm-5 18.8l-5.2-8 4.4-5h-2.4l-5.8 6.7v-12.5h-1.9v18.7h1.9v-3.7l2.5-2.9 4.1 6.6h2.4zm-13-11.9c-.9-.9-1.9-1.2-3.1-1.2-1.5 0-2.9.7-3.6 1.7v-1.6h-1.9v13h1.9v-7.9c0-2 1.2-3.5 3.1-3.5 1 0 1.5.2 2.2.9l1.4-1.4zm-14.3 5.4c0 1.4-.1 3.1-1 4-.6.6-1.4.9-2.4.9s-1.7-.3-2.3-.9c-.9-.9-1.1-2.6-1.1-4s.1-3.1 1.1-4c.6-.6 1.4-.9 2.3-.9s1.8.3 2.4.9c.9.9 1 2.6 1 4m1.9 0c0-2-.3-3.8-1.6-5.2-.9-.9-2.1-1.5-3.7-1.5s-2.8.6-3.7 1.5c-1.3 1.3-1.6 3.2-1.6 5.2s.3 3.8 1.6 5.2c.9.9 2.1 1.5 3.7 1.5s2.8-.6 3.7-1.5c1.3-1.4 1.6-3.2 1.6-5.2m-12.2-6.5h-2.1l-2.9 10.4-3.4-10.4h-1.6l-3.4 10.4-3-10.4h-2.1l4.1 13h1.8l3.4-10.1 3.4 10.1h1.8l4-13zm-22.7 6.5c0 2.5-.4 5-3.2 5s-3.3-2.4-3.3-5c0-2.5.4-5 3.3-5s3.2 2.5 3.2 5m1.9 6.5v-18.7h-1.9v7.3c-1.1-1.3-2.2-1.7-3.7-1.7-1.3 0-2.5.4-3.2 1.1-1.3 1.3-1.6 3.5-1.6 5.5s.3 4.2 1.6 5.5c.7.7 1.8 1.1 3.2 1.1 1.4 0 2.6-.3 3.7-1.7v1.6h1.9zm-15.3-6.5c0 1.4-.1 3.1-1 4-.6.6-1.4.9-2.4.9s-1.7-.3-2.3-.9c-.9-.9-1.1-2.6-1.1-4s.1-3.1 1.1-4c.6-.6 1.4-.9 2.3-.9s1.8.3 2.4.9c.9.9 1 2.6 1 4m1.9 0c0-2-.3-3.8-1.6-5.2-.9-.9-2.1-1.5-3.7-1.5s-2.8.6-3.7 1.5c-1.3 1.3-1.6 3.2-1.6 5.2s.3 3.8 1.6 5.2c.9.9 2.1 1.5 3.7 1.5s2.8-.6 3.7-1.5c1.3-1.4 1.6-3.2 1.6-5.2m-15.6 0c0 1.4-.1 3.1-1 4-.6.6-1.4.9-2.4.9s-1.7-.3-2.3-.9c-.9-.9-1.1-2.6-1.1-4s.1-3.1 1.1-4c.6-.6 1.4-.9 2.3-.9s1.8.3 2.4.9c1 .9 1 2.6 1 4m1.9 0c0-2-.3-3.8-1.6-5.2-.9-.9-2.1-1.5-3.7-1.5s-2.8.6-3.7 1.5c-1.3 1.3-1.6 3.2-1.6 5.2s.3 3.8 1.6 5.2c.9.9 2.1 1.5 3.7 1.5s2.8-.6 3.7-1.5c1.4-1.4 1.6-3.2 1.6-5.2m-12.1-6.5h-2.1l-2.9 10.4-3.4-10.4h-1.6l-3.4 10.4-3-10.4h-2.1l4.1 13h1.8l3.4-10.1 3.4 10.1h1.8l4-13z" fill="#fff"/></svg>