<svg width="280" version="1.1" id="Слой_1" xmlns="http://www.w3.org/2000/svg" x="0" y="0" viewBox="0 0 765.4 198.4" xml:space="preserve"><style>.st0{fill-rule:evenodd;clip-rule:evenodd;fill:#00a147}</style><path class="st0" d="M224.5 49.4l-.7-7.9-.1-.3-6.3-10.1h-.1c-.4-.4-.9-.5-1.5-.4l-3.9-5.8h-.3c-.1-.3-.3-.4-.7-.5l-5.4-2c-.3-.1-1.1 0-1.3.1l-6.2 4.2-3-3.9c-.2-.6-.7-1.1-1.4-1.1h-.3l-3.9.7-4.6.8c-.1 0-.7.3-.8.4l-.8.8-2.7 2.6-4 4-.4.4-2.4.5-1.9-2.3c.1-.9-.7-1.9-1.7-1.6l-9.4 2.4s-.5.3-.7.4l-3.2 3.8c1 .6 2 1.2 3 1.9-.6-.4-1.1-.7-1.7-1.1l3-3.6 9.4-2.4-5.4 6.3 11.4-3 .3-.1 3.8-3.6 2.7-2.7 1.7-1.7 4.4-.7 4.2-.7-4.2 3.9-4.6 4.2 4.6.5 3 .3 12.5-8.3 5.5 1.9-12.9 9.1 4 5.5 14.6-8.2.8 6.7-15.8 8.1-3.2 9.1 15.2-4.7-5 10.5-14.9 5.1-3.8 5-6.2 7.9-.1.1h.1l6.2-.3 6.4-.4-6.4 6.7-4.6 4.8-1.6.1-2.7.1-4 .3-3.5.3-16.6 15.2 8.2 3.1-8.6 7-5.4 4.3-1.1.9-2.9-1.3-.3-.1-1.5-.7-2-.9-1.1-.5-.7.5-1.7 1.1-3 2-1.6 1.1-3.1 2.1h-.1l-.9.7-1.5 1.1-1.6 1.1-1.1.8-2.3 1.5 1.2 8.6-1.3.8-1.7.9-1.1.5-1.2.7-2.4 1.3-4.7 2.6-3 1.6-.9-7.5-1.5.7-1.5.7-2.4 1.2-2.3 1.2-2.7 1.3-2.8 1.3-1.3.7-2.1.9-2.6 7.2-1.2 3.1-1.2.3-1.6.5-.3.1-3.6.9-4.3 1.2-2.3.5 2.3-5.4 1.9-4-1.9.4-3 .8-1.6.4-2.3.5-.4.1-3.6.9-1.2 1.6L62 162l-1.3 1.9-1.9 2.6h-1.3l-2.8.1-1.1.1h-2l-1.7.1 1.7-2.3.1-.1 1.2-1.6.7-1.1 1.1-1.5 2.8-3.6.1-.3-.1-.1-2.8-.4-1.1-.3-.7-.1-1.2-.1h-.1l-1.6-.4-10.1 9-2.7-3.9 8.6-8.2-2.1-4.8-9.5 6.2-.5-5 9.8-6.8 1.3-7.8-7 3.9 2.8-6.3 9.3-4.7 1.7-3.8v-.1l.1-.1.8-1.7c-.3-1.1-.5-2-.8-3 .1.4.1.8.3 1.2l-.3-.1h-.1l-2.1-.3 1.9-2.4.1.1c-.1-.6-.2-1.2-.4-1.9l-2.7 3.2c-.4.5-.3 1.2 0 1.7l1.7 3.4-1.2 2.7-9 4.6c-.1 0-.5.5-.5.7l-3 6.2c-.3.8.3 1.7.9 1.9l2.5 3.4-7 5c-.4.3-.7.9-.7 1.2l.4 5.1c.1.4.4.8.7.9l3.1 4.7-.1.1c-.4.4-.5 1.3-.1 1.7l2.7 3.9c.3.3.5.4.9.5l7.1 7.5h.9l3.5-2.8.3.3v.1h.1l1.2 1.3.7.8 1.1 1.2 2.5 2.7.3.1.3.1 3-.3H62l3.5-.3.9-.1.4-.3 3.5-4.2.4-.7L73 168l1.6-2 .8-.9 2.1 2.4 4.3 4.6.7.7.7.1 2.3-.7h.3l1.6-.5 2.4-.8 4.7-1.3 1.3-.4.8-.3.4-.4 1.6-3.9 2.5-6.7h.1l2.3-1.1 2.4-.9 1.5-.7 5.1-2.3.3.3 4.7 4.8.4.3.8.1 1.2-.7 1.5-.7 1.1-.5 1.7-.9 2.4-1.3 1.1-.5 1.6-.8 1.5-.8.9-.5.1-.1 3-1.5.1-.4.1-.4-.1-.5-1.3-5.4v-.1l-.5-1.9 1.9-1.2 1.6-.9 3-1.9 1.7-1.1 1.7-1.2 2-1.3 1.5-.8.3-.3 3.8-2.4.3.3 5.4 2.7 1.5.8.8-.1 15.4-11.4.1-.9-4.8-7.2 7.5-7 3.5-3.2h.5l2.7-.1 6.2-.4 3.2-.3.4-.3 11.3-12.5.1-.8-6-9 1.9-2.4 15.3-4.3.4-.4 5.9-10.7v-.7l-5.6-8.2 7.6-3.9.3-.9z"/><path class="st0" d="M57.4 133.7c-.9-1.9-1.7-3.8-2.5-5.6 0 .1-.1.4-.3.5-.4 1.1-.8 2.1-1.1 3.1-.3 1.1-.5 2.1-.7 3.2-.3 1.5-.3 2.7 0 3.9.1.9.4 1.7.7 2.4.3.7.7 1.2 1.1 1.7.3.4.5.7.9 1.1.5.5 1.2.9 1.9 1.3.9.5 2 .9 3.2 1.3.4 0 .9.1 1.3.3 1.1.1 2.3.3 3.5.3 1.5 0 3.1-.1 4.8-.4h.4c.8-.1 1.5-.3 2.3-.4.5 0 1.1-.1 1.6-.3.9-.3 2-.4 3-.7 1.5-.4 2.8-.8 4.3-1.3 1.2-.3 2.4-.7 3.6-1.2 0 0 .1 0 .3-.1.5-.1 1.1-.4 1.6-.5.8-.3 1.6-.7 2.4-.9 1.5-.7 3.1-1.3 4.7-2 .4-.1.8-.4 1.3-.7.9-.4 1.9-.8 2.8-1.2.8-.5 1.7-.9 2.7-1.3.8-.4 1.5-.8 2.3-1.2.8-.4 1.6-.8 2.4-1.3.5-.3.9-.5 1.5-.8 1.7-.9 3.6-2 5.4-3.1 1.6-.9 3.2-1.9 4.7-2.8.8-.5 1.6-1.1 2.4-1.5.5-.4.9-.7 1.5-.9.4-.3.7-.5 1.1-.7.5-.4 1.1-.8 1.7-1.2.8-.5 1.6-1.1 2.4-1.6.4-.3.7-.5 1.1-.8.5-.4 1.1-.8 1.6-1.1.5-.4.9-.8 1.5-1.2.4-.1.7-.4.9-.7.1 0 .1 0 .1-.1 1.1-.7 2.1-1.5 3.1-2.1.5-.4 1.1-.8 1.6-1.2.7-.5 1.3-1.1 1.9-1.5.4-.3.7-.5 1.1-.8.5-.5 1.1-.9 1.7-1.3.5-.5 1.2-.9 1.7-1.5.7-.5 1.3-1.2 2-1.7.5-.4.9-.7 1.5-1.1 0-.1.1-.3.3-.3 1.3-1.2 2.7-2.4 4-3.6 1.9-1.6 3.6-3.2 5.4-4.8 8.3-7.9 15.3-15.7 20.5-23 1.5-2.1 2.8-4.2 4-6.2 1.1-1.7 1.9-3.4 2.7-5 4.2-8.5 4.7-15.3.8-19.1-.3-.3-.5-.5-.8-.7-.8-.7-1.7-1.1-2.7-1.5-1.2-.5-2.6-.8-4-.9-2.8-.3-6-.1-9.8.5-.1-.1-.2-.1-.3-.2 3.6 2.8 6.9 5.9 9.9 9.3h.9l3.2.3 1.6.1 1.1.4 2 .5c-.1 2.3-.8 5-2 7.8-.4 1.1-.9 2.1-1.5 3.4-.4.7-.8 1.5-1.2 2.3-1.2 2-2.6 4.2-4 6.4-4 5.9-9.4 12.2-15.7 18.7-1.5 1.6-3.2 3.2-4.8 4.8-1.7 1.6-3.5 3.4-5.4 5-1.3 1.2-2.7 2.3-4 3.5l-.3.3c-.5.4-.9.8-1.5 1.2-.7.5-1.3 1.1-2 1.7-.5.4-1.2.9-1.7 1.5-.7.4-1.2.8-1.7 1.3-.7.4-1.2.9-1.9 1.3-.4.4-.7.7-1.1.9-.5.4-1.1.8-1.6 1.2-.9.7-2 1.5-3.1 2.3h-.1c-.3.3-.5.5-.9.8-.5.3-.9.7-1.5 1.1-.5.4-1.1.7-1.6 1.1-.4.3-.7.5-1.1.8-.8.5-1.6 1.2-2.4 1.7-.7.4-1.2.7-1.7 1.1-.4.3-.7.5-1.1.7-.5.4-.9.7-1.5.9-.8.5-1.6 1.1-2.4 1.6-1.5.9-3.1 1.9-4.7 2.8-1.7 1.1-3.6 2.1-5.4 3.2-.5.3-.9.5-1.5.8l-2.4 1.2c-.8.4-1.5.8-2.3 1.2-.9.5-1.9.9-2.7 1.3-.9.5-1.9.9-2.8 1.3-.5.3-.9.4-1.3.7-1.6.7-3.2 1.3-4.7 2-.8.3-1.6.7-2.4.9-.5.3-1.1.4-1.6.7h-.3c-1.2.5-2.4.9-3.6 1.3-1.5.4-2.8.8-4.3 1.2-.9.3-2 .5-3 .7-.5.1-1.1.3-1.6.4-.8.1-1.5.3-2.3.4h-.4c-.1 0-.4 0-.5.1-1.6.1-3 .1-4.3.1-1.2 0-2.4 0-3.5-.3h-.4c-.3-.1-.7-.1-.9-.3-.1 0-.3-.1-.4-.1l-.1-3.2.3-2.7c-1-1.4-2-3.3-2.9-5.2zm133.7-28.3l-.8.1-2.1.1.3.1c.5.7.7 1.6 1.3 2.3 0 .2 0 .6-.1.8.6-.7 1.1-2.3 1.4-3.4z"/><path class="st0" d="M51.1 94.1l1.1-5.6 1.8-5.6 1.2-2.9.9 2.2 1.6 2.4 2 2.2 2.6 2 3 1.9 3.5 1.5 3.1 1.2-1.2 6.5-.9 7.2-.5 7.3.1 5.5-3.2-1.4-4-2.1-3.3-2.4-2.8-2.6-2.1-2.8-1.7-2.9-1.1-3.1-.5-3.1.4-5.4zm3.3-17.5v.3l-.9 2.2.9-2.5zm4.7-4.7l-2.8 5.2.5 2 .9 2.2 1.5 2.1 1.8 2 2.4 1.9 2.8 1.8 3.3 1.4 2.8 1.1 1.5-6.3 2.4-7.3 1.8-4.6c-.2.1-.4 0-.5.1-.2.1-.3.4-.6.6 0 0-1.3.6-1.7 0-.3-.5-.9.1-1.3.1 0 0-.2-.3.3-.5.2-.1.3-.1.3-.2 0-.2-.2-.2-.3-.3-.1-.1.2-.4 0-.4-.3-.1-.5.2-.8.2-.4-.4.7-.2 1-.5-.1-.1-.2 0-.3-.1-.1-.3.3-.2.3-.5-.2 0-.8.2-1 .3-.4.2-.2-.3-.1-.4.3-.2.3-.2.3-.5s.2-.2.3-.2c.2.2.2 0 .2-.1s-.1-.3.1-.4c.2-.1 1 .3.9.6 0 .2-.3.3-.3.4 0 0 .1.2.2.2.1-.1.2-.3.3-.4.1-.1.1 0 .2 0 .1-.2-.1-.5.2-.6.2-.1.3.5.5.3s.1-.5.4-.6c.1 0 .1.1.2.1s.1-.1.2-.2c.2-.1.2.3.3.2.2-.1.1-.4.3-.5h.1c.2.2.3.3.2-.1 0-.2 0-.2.4-.2.2 0 .2.5.4.4.2-.1 0-.4.3-.5 0 0 .1.1 0 .5l2.1-4.6-1.5-.4-2.4-.8-2-1-1.8-1.2-1.6-1.3-1.3-1.4-.8-1.5-3.5 3.7-4.1 5.1-3 5.1zm-2.6.1l.7-2.3.7-1.6 2.9-5.6 3.5-5.2.4-.5h.1l.6-.7 3.5-3.9.8-.7-.3 1.3-.1 1.6.2 1.3-4.3 4.6-4.2 5.3-3.5 5.4-1.2 2.2.2-1.2zm14.7-18.9l.4-1.5.7-1.6.8-1.4 4.4-3 5-2.8 5.5-2.4.4-.1v.4l.1.8v.1l-2.1 1.1-6.1 3.8-5.3 4.2-3.8 3.4v-1zm7.3-10.3l-.6.5 3.8-2.1 5.7-2.5 1.4-.5.3-.8.5-.9.8-.8.2-.3-1.4.6-.9.4v-.1l-.6.3-5.4 3.3-3.8 2.9zM91.7 37l.6-.7.8-.6 1-.8.2-.2 3.6-.1 3.3.3-1.6.2-6.4 1.4-1.8.6.3-.1zm6.5-4.5l1.3-.4 1.5-.7 1.1-.4 1.5-.4 1.3-.4.5-.1-.1.4-.1 2V34l-3.3-.8-3.9-.4h-.3l.5-.3zm7.7 10.1l-.3-4-.1-1.5-2.9 2.4-4.2 4.2-.3.3 1.1.1 1.5-.1 1.4-.1 1.4-.2 1.7-.2.7-.1v-.8zm.5 4.4l-.2-1.8-.6.1-1.8.2-1.5.2-1.5.1-1.6.2-1.4-.1-1.2-.1-2.1 2.5-3.9 5.2-3.6 5.8-2.7 5 1.5.3 2.9.4 3.1.2 3.3.1 3.5-.2 1.4-.1c.2-.2.3-.4.5-.5-.2 0-.5.1-.7.1.3-.7.4-.9 1.3-1.4 0-.2-.1-.5-.1-.6.5-.4 1-.9 1.5-1.4-.4.2-.9.3-1.3.3.4-.1.8-.3 1.2-.5 0-.2-.1-.5-.1-.7 1.1-.2 1.2-.3 2.2-1.3.1.2.3.4.4.5.2-.3.7-.6 1-.7-.1-.2-.2-.4-.3-.5.4-.1.9-.1 1.3 0 .3-.7.5-.9.7-1.1l-.6-4.5-.6-5.7zm.9-14.5l.1-1.9.2-1 .4-.1 1.4-.2 1.6-.1 1.3-.2 1.3-.1 1.2.1h.1l-.3.1-4.5 2.4-2.9 1.9v-.9h.1zm11.7-3l-3.6 1.3-3.9 2.1 1.5-.4 6.9-1.1 2.7-.2-.4-.3-.6-.5-.7-.3-.8-.3-.8-.4-.3.1zm4.7-1.1l4.9-.4h1.4l6.2 1 1.2.3 2.9 1.1 1.7.8 1.5 1 .1.1-3.2-.6-6.6-.7H127l-2.2.2-.1-.2-.4-.9-.8-.5-.7-.6-.5-.3 1.4-.3zm19.8 6c-.1 0-.2-.1-.2-.1l.3.1h-.1zm.5 1.1c-.1-.1-.1-.3-.2-.4-.1-.1-.3-.2-.4-.3v-.1h.1l-.1-.1c-.7-.3-.4-.4-.4-.4h.1s-.1 0-.2-.1l-2.8-.5-6.5-.7H127l-2 .1v.3l-.1.9-.1.4 2.4.3 7 1.3 7 2 2.7 1c.1-.2.3-.3.7-.5 0-.2 0-.2 2-1.5.1.1.2.1.4.2v-.1c-.3-.2-.6-.5-.8-.7h.6v-.1c-.9-.3-1-.7-1.1-1.3.2-.1.3-.1.4-.1l-.2-.3-.9-.2-.2.2c-.1.1-.2.1-.3.4-.2.4-.2.4-.3.4-.1 0-.2-.1-.2-.1zm4.2-3.1l5.8 2.5 1.8 1-3-1.1-5.8-1.7-.9-1.2-.5-.4 2.6.9zm4.9 4.8c0 .4-.1 1-.2 1.3-.9-1.1-1.5-1.9-1.9-2.4l1.3.4.3.1h-.2c.1.2.3.2.3.2v-.1h.1l1.3.5c0 .1.1.1.1.2-.2-.1-.7-.2-1.1-.2zm-4.6-1.6l.1-.1h-.2l.1.1zm-2 13.2c-.8-.8-1-1-1.5-.9l.4-.4c.6.1.8.4 1.1 1h.7c-.3.1-.5.2-.7.3zm-3.3 2.8c2-1 2-1 1.7-2.6l-.6-.3v-.1l-.5.6-.1.1c.3.6.4 1.2.2 1.8-.4.1-.9.2-1.3.2l.6.3zm-3-5.4c-.2-.4-.4-.9-.5-1.2-.9-.4-1.9 0-2.4.6.4.8.5 1 .1 1.9.7.3.9.4 1.3 1.4.7-.1 1.2.3 1.9.3.1.1.1.2.2.3l-.4.3c-.3 0-.9 0-2.1-.1-.2.1-.4.1-.6.2-.2-.1-.2-.1-3 .1 0 .2.1.5.1.6.2.1.4.2.6.4 0 .1-.1.2-.2.3l-1.1-.9v-.1c0-.1-.2-.2-.4-.3l-1.7-1.5-2.4-1.8c0-.1-.2-.2-.2-.3h.2c0-.1-.1-.2-.1-.3.1-.1.1-.1.2-.1-.2-.2-.2-.2.1-.3 0-.1 0-.1-.1-.2.2-.1.4 0 .6-.2.1 0 0-.1-.1-.2s-.2-.2.3-.7c.8-.9 2-1.4 2.8-2.3.1-.1 0-.4-.1-.4-.2-.2-1.1 0-1.1 0-.6.3-.8 1-1.4 1.3-.4.2-.9.2-1.3.5-.1.1-.2.2-.3.4 0 .1 0 .1.1.2-.2.2-.6.1-.8.3-.5.4-.3.6-.3.7-.1 0-.2 0-.3.1-.1 0-.1.1 0 .2l-1-.8-5.2-3.4-1.8-1 .3-.2 1.3-.8.8-.9.8-.7.8-.8.3-.4 3.1.4 6.9 1.3 6.6 1.8c.1 0 .2.1.2.1l3.6 1.3c-.4.1-.9.4-1.8 1 .7 1.1 1.9 1.2 3 1.6l-.2.3-.3-.3c-1.9-.2-2.2-.3-3 .7.1.1.3.3.5.4h1.1l-.5.5c-1.2 0-1.8-1.3-2.9-1.5.3.2.8.6 1 .8-.1.2-.3.4-.4.5.4.6.6.9 2 2.1l-.2.2c-1.3-.8-2.6-1.4-2.6-1.4zM129 48.8c0 .1.1.3.5.5.1 0 .2.1.4.2l-.9-.7zm2.3 4.7c.5-.5 1.3-.8 1.9-1.2l-2.1-1.8h-.2c-.5-.1-.7.2-.7.3-.2 0-.3-.1-.5-.1-.1 0-.3.2-.4.2h-.1s-.4-.1-.2-.4c.2-.3-.1-.3-.1-.3-.1 0-.2.3-.4.2-.2-.1-.2-.1-.4 0-.1.1-.2-.1-.4 0-.2 0-.2.2-.3.4-.2 0-.8-.6-.7-.8.4-.4.4-.4.4-.7.1 0 .1 0 .2-.1v-.1c-.1-.1-.4-.1-.5-.2v-.1c.1-.1.2 0 .3-.1.1-.1 0-.3.1-.5.1-.1.3-.2.4-.3l-.2-.2c-.1 0-.3.1-.4.1v-.1c0-.1.1-.1.1-.2l-1.6-1.2-5.1-3.4-1.6-.9c-.1.1-.1.1-.1.2l.1.1-.6.2c-.1 0-.1-.1-.2-.1l-.2.1h-.3c.1-.1.4-.1.5-.2.1 0 .1-.1 0-.2 0 0-.1-.1 0-.1 0 0 .1-.1.4-.1 0 0 .1 0 .1-.1l-.7-.4-.1.1-1.4.6-1.4.6-1.4.5-1.6.7-1.5.3-1.5.4-.7.2.2 2.1.6 5.2.6 4.5c.1-.2.1-.4.2-.6.2 0 .4-.1.6-.1-.1.2-.2.4-.2.6.1.1.3.3.5.4 0-.2.1-.4.1-.6.4-.1.9-.2 1.3-.3.1.2.3.4.4.6-.1.2-.3.4-.5.5 1.2-.2 1.2-.2 1.9-.8.4.1.8.4 1.1.6 1.3-.8 6.1-.3 7.3.8-1.1 3.1-4.4 1.5-6.6 2.3.9.1 1.1.2 1.9.6.1.3.1.5.2.6l2.8-.9 1.5-.6c0-.1-.1-.2-.1-.3 1.6-1.6 1.6-1.6 3.1-1.4-.1-.4-.3-.9-.5-1.2l-.4-.1c.1-.9.1-.9-.9-1.7.7 0 1.4-.1 2.1-.2.1.2.3.4.4.5-.2.1-.4.3-.5.4.2.3.6.7 1 .9 1.8-1 2.7-2.9 4.2-4.2 0 .5.5.8.8 1.1zm-11.1 9zm9.5 39.9c-2.5 1.2-6.3 2.9-9.4 2-.8-.2-1.8-.4-2.6-.4l-.6-3.2-.4-2.3.4-.4c-.1-.2-.3-.4-.4-.5.2 0 .5 0 .7-.1-.3-.3-.7-.7-1.1-.9.5.1 1.1.3 1.5.5-.7-.8-.7-.9-1.8-1.6l-.1-.5c.3-.1.6-.3.8-.4-.1-.2-.1-.4-.2-.6.1-.1.2-.1.4-.2l1.5-.4c.4.1.7.4.8 1.1l.6-.3c.2.6.6 1.1.7 1.7h-.7c1.4 1.3 1.4 1.3 2.1 1.4.1.2.3.4.4.5.1-.2.3-.4.4-.5.4.2.9.3 1.3.3.2-.3.6-.7.8-1 3.1 0 3.1 0 3.5-.9.4-.1.9-.3 1.2-.4.2.1.4.3.6.4-.2 2.3 2 4.7-.4 6.7zm-18.3-33c1.2-.4 2.3-.8 3.6-.6-.2.3-.5.6-.8.8-.7.4-1.8.9-2.6 1.4v-.1l-.2-1.5zm-8.2 24.7h-.4l-2.9.2c.1 0 .2-.1.3-.1.1-.2.1-.4.2-.6 1.2-.5 2.1-.1 2.8.5zm6.7-.9l-1.3.2-2.8.4c-.8-.5-1.5-1.1-2-2.2.7-.4.9-.5 1.1-1.1v.1c.4.7.6.9 1.6.8 1.2 1.1 1.2 1.1 2.2 1.3.1-.1.2-.1.2-.2.4.3.5.5 1 .7zm-1.3-30.1l.1.5-1.4.3c.4-.5.8-.8 1.3-.8zm6.8-23.2l.4.2-.3.1-1.3.6-1.4.5-1.5.7-1.4.3-1.6.4-.5.1-.1-.5-.3-3.9-.1-1.9 3.3 1.2 4.8 2.2zm.7-5.9l4.1-.6 3-.2v.1l-.1.6-.2.5-.1.1-2.7-.3-4-.2zm3.9 2l-7-.2-1.8.1h.1l4.9 2.3 1.4.8.2-.1 1.1-.6 1-.6.7-.8.8-.7.1-.1-1.5-.1zM83.3 66l2.1.4 3.1.4 3.2.2 3.4.1 3.4-.2c-.2.4-.5.7-.7 1.1h.7c-.1.2-.1.5-.2.7-2.1 0-4.1 3.6-4.1 3.6.4-.1.9-.2 1.3-.3 0 .2-.1.4-.2.6-.4-.1-.9.1-1.2.2.1.2.2.4.2.6.4-.1.9-.3 1.3-.4-.2.4-.6.8-.9 1.1.6 1.2.6 1.2.4 1.9.2.1.4.3.6.4h.2c.8 0 1.7.1 3-2.2.2.1.4.1.6.2 0 .3.6 2.1 1.8 2.7.1.4.2 1 .4 1.4.2.1.5.1.6.2 1.6-1.5 1.6-1.5 2-1.6.1-.7.1-.7.4-3.4.3-.2.7-.6 1-.9-.6 0-1.3.2-1.9.2.9-.6 1-.6 1.8-.6.1-.2.3-.4.4-.5-2.1-1.9-2.1-1.9.7-6l1.7-.3c-.4.6-.8 1.2-1.3 1.8.7 1.7.7 1.7.7 1.8 0 .2 0 .5-.1.7.1.2.3.4.5.5.4-.1.9-.2 1.3-.3l.2 1.2.5 2.7c-.2-.1-.5-.3-.7-.3-.5.4-.5.4-1.4 4.4l-.5.5c-1.9-1.2-2.9 1.4-4.5 1.6-.1-.1-.3-.3-.5-.4-2.7 1.6-3.5.6-3.6-.6.3-.3.7-.7.8-1.1-.2-.4-.4-.9-.5-1.3-2.1.6-2.1.6-1 4.1l.2.3c0 .2 0 .5-.1.7-1.1.3-1.1.3-1.6.7-.6.2-2.1.8-2.5 3.3-1.5 1.2-1.5 1.2-1.5 1.9-2 1.6-2 1.6-2.7 1.4.1.9.1.9-.7 1.7-.2-.1-.4-.2-.5-.3-.3.2-.7.7-.8 1.1 1.2.4 1.2.4 1.9.3.8 1.2 1.4 2.1 1.7 2.8l-5-.2-4.9-.6-4.5-.7-3.3-1 1.6-6.3 2.3-7.1 2.7-6.8 2.7-6.1zm7.6-21.8l1 .5 1 .3 1.1.3.4.1-1.4 1.7-4 5.3-3.7 5.9-3 5.5-1.8-.5-2.2-.8-1.8-.9-1.6-1.1-1.4-1.1-1-1.2-.6-1.2-.3-.8 4.6-4.2 5.4-4.1 5.9-3.7 2.1-1.1.6.4.7.7zm9.1-5.9l1.8-.6-.4.3-4.3 4.3-1.3 1.5h-.3l-.9-.3-1.1-.3-.8-.3-.7-.3-.5-.4 2.1-1.1 6.4-2.8zm-7.3 1.1l-2.4 1.3v-1.1l3.5-1.2 2.4-.5-3.5 1.5zm23 67.1c-.6-1.2-.5-1.9.1-2.2l-.6-3.1-.6-2.9-.1-.7c-.1 0-.3.1-.4.1-1.1-1.2-1.1-1.2-1.3-1.6-.1 0-.1 0-.8-1.2l-2.6.4c.7.3 1.4.5 2 1l-.6.3-.6-.3-.6.3c.1.4.5.8.8 1-.3.7-.3.9-1 1.9l-.3-.5.3-.6c-.2-.3-.6-.8-.8-1.1h-.7c-.1-.2-.3-.4-.4-.5-.2 0-.4.1-.6.2-.1-.2-.3-.4-.4-.6-.5 0-.9-.2-1.3-.4H103l-5.7.4h-1c-3.4 2.1-2.3 5.9-2.2 5.9-.1.2-.3.4-.4.6 0 .2.1.5.2.7l-.6.3c-.7 1.7-2.7 1.7-3.8 2.8-.3-.3-.7-.8-1-1.1 0 0-.5.1-1.9.5L85 98.4c1.7-2 4.7.4 6.4-1.8.1-.1.1-.1.1-.2l-5.1-.2-5-.6-4.6-.7-3.3-.8-1.2 6.2-.9 7.1-.5 7.1.1 6.2 4.3 1.5 5.5 1.1 3.9.6c0-1.5.2-3.7.9-5.4 0-.3.1-.8.1-1.1 4.5-2.4 1.9-7.5 4.1-10.7 1.1.9 1.3.7 2.3-.1.2.1.4.3.5.4 1.5-.3 2-1.6 3.1-2.5l.3-.1c2.2-1.3 2.5-1.3 3.8-1.1.7-.7 1.4-.9 2.3-.8.6-.5.7-.6 1.7-.9.1.1.3.3.5.4.2-.1.4-.3.6-.4-.3.7-.3 1 .4 1.7 0 .9 0 1.2-.7 1.9.3.2.9.4 1.2.3l.5.5s2.4.2 3.9 0c1.8 2.1 5.1 1.6 5.5.5zm-67-7.1l.1 3.7.1 3h.1l.5 5.1 1.2 6.2 1.9 6.2 1.4 3.6-.1.1.4.8.1.2.5 1.3 2.8 5.7 3.4 5.5 2.2 3h2.3l-3-4.1-.8-1.3 3.3 2.8 4 2.4h.7c.2 0 2-.4 2.1-.4 0 0 .2-.1.4-.1l-2.1-1-4.1-2.4-3.4-2.8-2.9-3-2.2-3.2-1.7-3.1-1.8-4.6-1.8-6.1-1.2-6.1-.4-3.5 1.3 2.2 2.3 3 3 2.8 3.5 2.6 4.1 2.2 4.1 1.8.4 6 .9 6.4 1.5 5.8.9 2.7c.4-.1.7-.2.7-.2h.1c.3 0 .7-.1 1.1-.2l-1-2.9-1.4-5.7-.9-6.2-.4-5.1 3.7 1.3 5.7 1.2 4.8.8c1.7 2.7.2 7 4.1 8.7.2-.1.4-.3.5-.4.8 1.2.8 1.2 1.1 1.4.6.3.7.3 1.4.9.6-.2.9-.4.9-.4l-.2.1 1-.5.5-.2c.8-.4 1.8-.8 2.7-1.3l.9-.4 1.8-.9 1.2-.6 1.1-.6 2.4-1.2s1.3-.7 1.4-.8c0 0 5.3-3.2 5.4-3.2l.2-.1c1.5-.9 3.1-1.8 4.5-2.7l2.5-1.7h.1c.4-.2.8-.4 1.3-.8l.2-.1.2-.1c.1 0 .2-.1.4-.2 0 0 .2-.2.3-.2l1.3-.8s.4-.3.5-.3l1.1-.8s1.3-1 1.3-.9l.4-.3s.6-.4.6-.5c.1 0 .9-.6.9-.6l.7-.5.4-.3c.3-.3.7-.6 1.1-.8.3-.2.5-.4.7-.6l.4-.4h.2c.8-.6 2.7-2 2.7-2l.4-.3-3.9-5c-.3-.3-.8-.7-1.2-.9.5 0 .5 0 1.9.8.1-.2.1-.5.2-.7l.5.5c.2-.1.5-.1.7-.2l3.8 4.1c.1-.1.2-.1.2-.2l.2-.1.9-.7s.7-.5.9-.7c.5-.5 1.1-.9 1.8-1.3.5-.4 1-.9 1.7-1.5.7-.7 1.4-1.2 2.1-1.8 0 0 1.2-1 1.4-1.1l.2-.2s.2-.2.5-.4l-1.4-1.4.3-.6c.6-.6.6-.6 1.7-.9l1.3 1.3c.9-.8 1.7-1.5 1.7-1.5 1.2-1 2.4-2.2 3.5-3.2l1.8-1.7 1.6-1.6c1.1-1 2.2-2.1 3.2-3.2 6.7-7 11.9-13.2 15.7-18.8 1.5-2.3 2.8-4.4 4-6.4.4-.8.8-1.5 1.2-2.2 0-.1.5-1.1.5-1.1l.9-2.1v-.1c.3-.7.5-1.3.7-1.9l-2.5-3.4-4.3-4.8-4.8-4.4-3.6-2.8-.6-.7-.1.1-.8-.6-5.3-3.7-5.6-3-6-2.5-6.1-2-6.2-1.5-6.4-1-6.5-.3-6.4.1-6.5.7-3.9.8-.6-.2-.1.3-1.6.3-6.2 1.8-6 2.4-5.5 2.8-5.6 3.4-2.5 1.9-.1-.1-.7.6-.6.5-1.3 1-4.8 4.3-4.4 4.6-4 5.1-3.6 5.3-3 5.7-.4.9h-.1l-.2.8-1.8 4.1-2.1 6.2-1.5 6.2-1 6.5-.4 6.2v.5h-.1l.2.7zm146.5 8.9l-.9 6.1-.4 1.8c-.1.2-.2.4-.2.5l.1-.1-1 3.9-2 5.9-1.5 3.4-1.9 3.4-.7 1-6.7 7.6.1-.3.5-4.5v-4.9l-.4-4.9 4-3.8 2.9-3.2v.1c0 .1-.1.7 0 .9l.7 2.5c.2 0 .2 0 1-2.7.1-.3 0-.6 0-.9l-.3.1c-.1-.3.1-.5.1-.7 0-.2 0-.2-.3-.2-.1-.2 0-.4 0-.5l2.3-3.2c0 .1-.1.3-.1.6l-.3 1.4v.3l.1-.1h.1c.1.7-.4 1.3-.2 2 .1.2 0 .2.3-.1h.1c0 .2-.1.4 0 .6l.1-.3h.1c.2-.2.1-.4.2-.6v.2h.1v.2l.1-.2c.1.3-.1.5-.1.8.1 0 .5-.7.6-.9l.8-2.8c0-.1 0-.2.1-.4 0 0 .3-1.5.4-1.6l.1.1c.1-.1.1-.2 0-.6-.1-.3-.1-.4 0-.8s0-.9.1-1.3l.5-2 .4-1v.2s.1-.1.1-.2v-.2l.2-.4s.1-.1.1-.3l.3-.8c0 .7-.1.8 0 1 0-.1 0-.1.1-.2v.4c0-.1.1-.4.1-1 0-.7.1-.7.1-.7l.1 1.4zm-14.6 36.2l-2 2.5.4-1.2 2.4-2.7c-.2.5-.5.9-.8 1.4zm-3.2.3l.9-3.6.5-4.3v-4.7l-.3-3.5-3.7 2.9-5.5 3.8-5.9 3.5-6.5 3.2-2.5 1.1c.2.5.4 1.2.3 1.4 0 .1 0 .1-.1.2-.6-.2-.6-.2-.6-.1s.1.3.1.4c.1.2.1.2.1.3 0 .3-.4.5-.4.8.1.6.1.6 0 .9l-1.2 3.3c-.4 1.4-.6 1.9-.6 1.9-.1.2-1 1-1.4 1-1 .1-1-.5-1-.5 0-.2.2-.4.1-.6-.1-.3-.4-.4-.5-.7 0-.1 0-.1.9-2.1.1-.1.1-.2-.2-.7-.2-.4-.4-.6-.3-.9 0 0 .6-1.4.8-1.6.2-.1.3.1.5 0 .1-.1 0-.3.2-.3h.3c.1 0 .1 0 .3-.3.1-.2.1-.2.4-.1.1-.1.1-.1.1-.3 0-.2.1-.4.1-.5v-.1c.1-.2.4.1.5-.1.1-.2-.1-.4-.1-.5l-2.7 1.1-3.5 1.3c-.3.8-1.3 2.1-3.8 5.3.9 2 .9 2-.9 4.6.1.2.3.4.3.6 0 .1-.8 10.7-9.7 4.6l.6 1.8.8 2.3 5.6-1.2 6.3-1.8 6.2-2.1 5.9-2.6 5.6-2.8 5.2-3.2 4.8-3.4 4-3.7zm-1.3 3.6l-1.6 2.8-1.8 2-3.8 3.4-5 3.7-5.4 3.4-5.6 2.8-5.9 2.2-6 1.8-4.4.9-.2-.2-.6-1.1-.9-1.7-.5-1.4 5.4-1.2 6.5-1.9 6.3-2.1 6-2.6 5.7-2.9 5.3-3.3 4.9-3.4 1.6-1.2zm-35.7 5.3h-.1.1zm50.7-38.7l-.2.2v.1c.1 0 .1-.1.2-.1v.2s.1 0 .1-.1c.1-.3.1-.6.1-.9l-.2.6zm3.6-10.4l-.8.6h-.1l-.2.6-1.7 4.2-2.4 4.1-.7 1c-.7-6.3-.9-8.5-1-9.4l-1 .1c.1.6.2 1.1.2 1.3v.6c0 3.4 0 3.4.2 3.7l.3.9c.3 1.2.3 2.6.6 3.8l-.6.8c0-.4-.1-.4-.1-.4h-.1c0-.2.1-.3.1-.5-.1-.3-.4-.3-.6-.5-.2-.3 0-.8-.4-1.1-.4.1-.7.1-1.1.2-.5.3.5 1.4.5 1.4s.1 0 .1-.1h.1c.1.4 0 .8.2 1.2.1.2.4.1.4.3v.5l-.1.2-3.7 4.1-3 2.9-.7-3.9-1.3-5.1c0-.2-.2-.9-.4-1.5l-1.3-3.8c-.9.8-1.8 1.7-2.7 2.5.7 1.5 1.2 2.5 1.2 2.5.2-.1.5-.2.6-.2l.3-.6.2.6 1.5 5.9.9 5-4.5 3.5-5.4 3.7-5.8 3.5-6.3 3.1-6.8 2.8-2.9 1.1c-.7-2-3.1-3.5-1.8-6.1.3-.8.5-1.5.7-2-.5.3-.9.6-.9.6l-1.8 1.2-1.8 1.1-3 1.9s-1.5.9-1.6.9c0 0-.5.3-1 .7.1.5.3 1.1.3 1.1v.2c.1.3 1.3 5.2 1.3 5.2l.2.9-.3.8-.3.9s-2.9 1.5-3.3 1.6l-.1.1-1 .7-1.5.8-1.6.8-1 .5s-.3.2-.7.4l2.6 2.4.3 1 1.1 3.7.7 2-5.3.9-6.4.5-6.3.2-6-.4-5.8-.7-1.5-.3v.1l-.7 1.7 1.9.4 6 .7 6.1.4 6.5-.2 6.5-.5 5.7-.9.7 1.8.9 1.8.4.7-6 .8-6.3.2-6.2-.5-6.2-.9-6.1-1.4-4.3-1.5-.7 1.6-.1.1 4.6 1.6 6.2 1.5 6.4.9 6.4.5 6.5-.2 6.4-.8.9-.2.3.3.3-.4 4.7-.9 6.1-1.9 6.1-2.3 5.8-2.9 5.5-3.4 5.2-3.8 3-2.7.1.1.8-.9.9-.8 4.4-4.7 4-5 3.5-5.4 3-5.7 1.1-2.5.7-1.3-.1-.1.9-2.1 2-6.1 1.6-6.2.9-6.3.4-6.5v-.4l-2.6 3zm48.7-59.4h16.9l-17.8 39.5 40.4-39.5h16.9l-28.1 62.1h-16.8l16.6-36.8-39.3 36.8h-16.8zm64.5 0h16.9l-10.9 24h22.7l10.8-24h16.9l-28.1 62.1h-16.8l11.4-25.2h-22.7l-11.4 25.2h-16.8zm71 14.8H365l6.7-14.8h44.6L409.7 60h-13.9l-21.3 47.3h-17zm44.7-14.8h38.1l-6.1 13.6h-21.4l-4.9 10.8h20.1l-5.9 13.3h-20.2l-4.8 10.5H440l-6.3 13.9h-38.1zm50.2 28.1h3.3c2.4-.1 4.9-.5 7.3-1.4 2.4-.9 4.4-2.8 5.8-5.9l.3-.6c1.2-2.7 1.1-4.5-.3-5.4-1.5-.9-3.3-1.4-5.4-1.5-.4-.1-.7-.1-1.1-.1h-4L473 73.2c.2 0 .5 0 .8.1zm14.9 11.3c-5 1.5-10 2.3-14.9 2.4h-6.9l-9.3 20.6h-16l28-62.1h22.1c.8 0 1.7 0 2.5.1 3.3.1 6.3.7 9 1.7s4.4 2.9 5.3 5.8c.5 1.4.6 3 .5 4.8-.2 1.8-.5 3.6-1.1 5.4-.2.5-.4 1.1-.6 1.7-.2.6-.5 1.1-.7 1.7-.6 1.2-1.2 2.5-1.9 3.8-.7 1.3-1.5 2.5-2.3 3.6-4.2 5.3-8.7 8.9-13.7 10.5zm54.8-20.9c1-2.3.9-3.8-.4-4.7-1.3-.8-3-1.3-5-1.5-.2-.1-.5-.1-.8-.1H532L526.3 70h2.1c.2.1.3.1.5.1h3.1c2-.1 4-.5 6-1.2s3.6-2.1 4.8-4.2l.7-1zm-26.9 30.9h1.5c.2.1.5.1.7.1h3.7c2.3-.1 4.6-.5 6.9-1.2 2.3-.7 4-2.2 5.2-4.4l.6-1.3c1.1-2.5.9-4.2-.6-5.1-1.6-.9-3.4-1.4-5.7-1.5h-7.4l-6.1 13.5c.3-.1.7-.1 1.2-.1zm24.7-49.4h3.9c1.4 0 2.7.1 4 .2 4.3.4 7.9 1.5 10.9 3.4s3.4 5.4 1.3 10.6l-.6 1.3c-1.7 3.8-4 6.6-6.9 8.6-2.9 2-6.4 3.4-10.4 4.5 4.3.5 7.1 2.1 8.3 4.9 1.2 2.8.8 6.4-1.2 10.8l-.7 1.6c-3 5.9-7 9.9-12.2 12-5.2 2.1-10.3 3.4-15.6 3.9-1.9.2-3.8.3-5.6.3h-22.8l28-62.1h19.6zm35.5 0h38.1l-6.1 13.6h-21.5l-4.9 10.8h20.2l-6 13.3h-20.2l-4.7 10.5h21.4l-6.2 13.9h-38.2zm81.1 20.9c-1.1-2.2-2.6-4-4.3-5.4-1.7-1.4-4.1-2-7.2-2H645c-4.7.4-9 2.3-13 5.8-4 3.4-7 7.2-9 11.2-.1.1-.1.3-.2.4-.1.2-.1.3-.2.4-1.6 3.6-2.2 7.1-1.8 10.3.4 3.2 2.3 5.4 5.5 6.5.8.3 1.6.5 2.3.6.8.1 1.5.2 2.2.2 2.9 0 5.8-.7 8.8-2.2 3-1.5 6.1-3.3 9.2-5.4l-8.4 18.5c-1.1.4-2.1.7-3.2 1.1-1 .3-2.1.6-3.1.9-2 .5-3.9.8-5.8 1.1-1.9.3-3.8.4-5.6.4h-3.3c-.3 0-.7-.1-1.1-.1-7.8-.8-12.8-4.3-14.9-10.6-2.1-6.3-1.3-13.4 2.3-21.5 3.6-8 9.3-15.1 17-21.4 7.7-6.3 15.9-9.9 24.6-10.9h3.9c2.9 0 5.5.3 8.1 1 2.5.7 4.8 1.6 7 2.8l-8.4 18.3zm7.7 41.2h-16.8l28-62.1h56.4l-28.1 62.1h-16.8l21.9-48.5h-22.6zm17.3 48.6h-491l4.9-10.5h23.5l2.9-5.1h-24l4.7-10h24l2.9-5.1h-24.5l4.5-9.6h491l-4.5 9.6h-21.6l-2.9 5.1h22.1l-4.7 10h-22.1l-2.9 5.1h22.6l-4.9 10.5zM251.1 145c3.9-.1 7.1-1.1 9.5-2.8 2.4-1.8 4.3-4 5.6-6.6 1.3-2.7 1.5-4.9.8-6.6-.8-1.8-3-2.7-6.8-2.8l1.1-2.4h-4.8l-1.1 2.4c-3.8.1-6.9 1.1-9.4 2.7-2.5 1.7-4.4 3.9-5.7 6.7-1.3 2.7-1.5 4.9-.8 6.6.7 1.8 3 2.7 6.8 2.9l-1.4 2.8h4.8l1.4-2.9zm2-4.1l5.2-10.8c3.9 0 5 1.7 3.3 5.2-.7 1.4-1.4 2.5-2.1 3.2-.7.7-1.7 1.3-2.8 1.7-1.1.5-2.3.7-3.6.7zm-4.8 0c-3.9 0-5-1.8-3.3-5.2.9-1.9 2-3.2 3.4-4.2 1.4-.9 3.1-1.4 5.1-1.4l-5.2 10.8zm19 6.9l11.6-24.2h17.9l-2 4.1h-13l-2.6 5.4h12.1l-2 4.1h-12.1l-3.1 6.6h13.5l-2 4.1h-18.3v-.1zm39.2-24.2l-1.2 2.6c-2 4.2-3.8 7.6-5.4 10.4-1.6 2.7-3.4 5.1-5.4 7.2h-2.1l-4.5 9.4h4.1l2.5-5.3h15.2l-2.5 5.3h4.1l4.5-9.4h-2.1l9.6-20.1h-16.8v-.1zm2.7 4.1h7.1l-7.7 16h-9.2c3.1-3.4 6.3-8.7 9.8-16zm10.9 20.1l11.6-24.2h17.9l-2 4.1h-13l-2.6 5.4h12.1l-2 4.1H330l-3.1 6.6h13.5l-2 4.1h-18.3v-.1zm25.7 0h4.9l4.4-9.1h3.2c2.2 0 3.9-.1 5.2-.3.9-.2 2-.6 3.1-1.1 1.1-.6 2.2-1.4 3.2-2.4s1.9-2.3 2.6-3.7c.9-1.9 1.2-3.5.9-4.7-.4-1.2-1.1-2-2.3-2.4-.8-.2-2.7-.4-5.6-.4h-7.8l-11.8 24.1zm14.5-20.1h2.3c1.8 0 2.9.1 3.4.2.7.1 1.2.5 1.4 1.1.2.6.1 1.3-.3 2.2-.3.7-.8 1.3-1.5 1.9-.6.5-1.3.9-2.1 1.2-.8.3-2.1.4-4 .4H357l3.3-7zm28.7 20.1h-5.3l.5-5.5h-9.7l-4.6 5.5h-5.2l21-24.2h5.2l-1.9 24.2zm-4.3-9.6l.9-9-7.6 9h6.7zm22.6-14.6l-6.6 13.8-2 4.2c-.5 1.1-1 1.8-1.5 2-.5.3-1.2.4-2.3.4h-1.1l-1.8 3.8c1.5.1 2.5.2 3 .2 1.6 0 3-.3 4.1-1 1.1-.7 2-1.6 2.8-2.7.8-1.2 1.8-3.2 3.3-6.2l4.9-10.3h7.3l-9.6 20.1h4.9l11.6-24.2h-17v-.1zm25.2 0h4.9l-4.6 9.7h6.5c3.1 0 5 .7 5.6 2.2.7 1.4.5 3.2-.4 5.2-.8 1.6-1.9 3.1-3.3 4.2-1.4 1.2-2.7 1.9-4 2.4-1.3.4-2.9.6-4.9.6h-11.4l11.6-24.3zm-4.8 20.1h4.7c1.5 0 2.6-.1 3.3-.2.7-.1 1.4-.5 2.1-1 .7-.5 1.3-1.2 1.6-1.9.5-1.1.5-1.9 0-2.4-.6-.5-1.8-.8-3.7-.8h-5l-3 6.3zm20.4 4.1h4.9l5.1-10.6h9.5l-5.1 10.6h4.9l11.6-24.2h-4.9l-4.6 9.5H460l4.6-9.5h-4.9l-11.6 24.2zm49.3 0h-5.3l.5-5.5H483l-4.6 5.5h-5.2l21-24.2h5.2l-2 24.2zm-4.3-9.6l.9-9-7.6 9h6.7zm24.5 9.6h4.9l11.6-24.2h-10.3c-2.4 0-4.3.2-5.7.6-1.4.4-2.7 1.2-4 2.3s-2.3 2.4-3 3.9c-.8 1.7-1 3.1-.6 4.4.4 1.2 1.7 2 3.7 2.4-1.3.6-2.5 1.3-3.6 2-1 .7-2.6 2.1-4.7 3.9l-5.2 4.7h5.8l6-5.3c2.6-2.3 4.4-3.7 5.2-4.1.9-.5 2.1-.7 3.6-.7h1l-4.7 10.1zm9.6-20.1l-2.9 6.1h-3.6c-2 0-3.3-.1-3.9-.2-.6-.1-1-.4-1.2-.9-.2-.5-.1-1.2.3-2s.9-1.5 1.6-2c.7-.5 1.4-.8 2-.9.6-.1 1.9-.1 3.9-.1h3.8zm41.8 11.2c-1.3 1.8-2.6 3.1-3.9 3.9-1.3.8-2.6 1.2-3.9 1.2-1.8 0-2.9-.6-3.4-1.9-.5-1.3 0-3.5 1.5-6.5 1.4-2.9 2.9-5 4.7-6.2 1.7-1.3 3.5-1.9 5.3-1.9 1.3 0 2.2.4 2.8 1.1.6.7.7 1.7.4 3l5.4-1.1c.4-1.9.3-3.4-.3-4.5-1-1.8-3-2.6-6-2.6-3.4 0-6.7 1.1-9.8 3.3-3.1 2.2-5.7 5.4-7.6 9.4-1.8 3.8-2.2 6.8-1.2 9 1 2.2 3.1 3.3 6.3 3.3 2.6 0 5-.6 7.4-1.9 2.3-1.3 4.5-3.3 6.5-5.9l-4.2-1.7zm7.8 8.9l11.6-24.2h17.9l-2 4.1h-13l-2.6 5.4h12.1l-2 4.1h-12.1l-3.1 6.6h13.5l-2 4.1h-18.3v-.1zm31 0h4.9l9.6-20.1h7.1l2-4.1h-19.2l-2 4.1h7.2l-9.6 20.1zm30-24.2h4.9l-4.6 9.7h6.5c3.1 0 5 .7 5.6 2.2.7 1.4.5 3.2-.4 5.2-.8 1.6-1.9 3.1-3.3 4.2-1.4 1.2-2.7 1.9-4 2.4-1.3.4-2.9.6-4.9.6h-11.4l11.6-24.3zm0 20.1c1.5 0 2.6-.1 3.3-.2.7-.1 1.4-.5 2.1-1 .7-.5 1.3-1.2 1.6-1.9.5-1.1.5-1.9 0-2.4-.6-.5-1.8-.8-3.7-.8h-5l-3 6.4h4.7z"/></svg>