<svg width="188" xmlns="http://www.w3.org/2000/svg" viewBox="0 0 206.9 76.5"><path d="M28.7 38.3c0 1.3 0 1.8-.4 2-.6.4-1.1.7-2 1.5-.7.6-1.2 1.5-2.1 1.5-.4 0-1.9-.4-2.2-.7-.5-.3-1.1-.5-1.1-2.4 0-2.3.5-4 .3-8-2.7 3.3-3.7 6.2-5.5 9.3-.4.7-1 1-1.4 1-.4 0-.7-.2-1-.5-.5-.6-.4-1.1-1.1-1.8-.6-.7-1-.2-1.8-.9-.5-.5-.6-1.5-.6-2.1 0-1.8.2-1.8.5-2.6 1.5-2.2 3.8-5.5 9.3-11.7-.7-2.8-1.1-4.6-1.9-7.2-.1-.3-.3-1-.3-1.7 0-.5.5-1.1 1-1.5 1.1-.7 1.8-1 3.4-1.7.7-.3 1.3-.4 1.7-.4.8 0 .9.5 1.1 1.1.5 1.8 1.1 3.7 1.5 5.4 2.2-2.5 4-3.8 5.9-5.8.3-.3.6-.6 1.2-.6.7 0 1.1.5 2.1 2.7.4.8.8 2 .8 3.2 0 2-1.1 1.7-8.2 9.4.5 4.3.8 9.6.8 12.5zm27.7-4.8c.6 0 1.7 0 2.2.5.7.9 1.8 2.8 1.8 3.6 0 .7-.9 2.9-1.9 3.6-1 .8-2.5.5-4.8.5-9.8 0-12.4 1.3-14.4 1.3-1.5 0-1.8-.7-2.6-1.9-.7-1.1-1.6-2.7-1.6-3.5 0-.6 0-1.3.9-2 14-10.3 15.5-13.7 17.6-16.8.6-.8-.4-1.5-1.6-1-1.6.7-3.9 2.3-6 2.3-1.2 0-1.8-.7-2.3-1.6-1-1.5-2.1-2.6-2.1-3.9 0-.7 1-1.3 1.8-1.7 3.4-1.6 6.8-3 10.4-3 3.4 0 9.8 2.4 9.8 8.5 0 4.8-4.2 10.5-11.8 15.4 2.4 0 3.3-.3 4.6-.3z" fill="#e3000b"/><path d="M104.1 40.4c0 .6-.2 1.2-.7 1.6-.4.4-1 .7-1.6.7-.6 0-1.2-.2-1.6-.7s-.6-1-.6-1.6V28.1c0-.7-.1-1.3-.4-2-.3-.6-.6-1.2-1.1-1.6-.5-.5-1-.8-1.6-1.1-.6-.3-1.3-.4-2-.4s-1.4.1-2 .4c-.6.3-1.2.6-1.6 1.1-.5.5-.8 1-1.1 1.6-.3.6-.4 1.3-.4 2v12.2c0 .6-.2 1.2-.7 1.6-.4.4-1 .7-1.6.7-.6 0-1.2-.2-1.6-.7-.4-.4-.7-1-.7-1.6V28.1c0-.7-.1-1.4-.4-2-.3-.6-.6-1.2-1.1-1.6-.5-.5-1-.8-1.6-1.1-.6-.3-1.3-.4-2-.4s-1.4.1-2 .4c-.6.3-1.2.6-1.6 1.1-.5.5-.8 1-1.1 1.6-.3.6-.4 1.3-.4 2v12.2c0 .6-.2 1.2-.7 1.6-.4.4-1 .7-1.6.7-.6 0-1.2-.2-1.6-.7-.4-.4-.7-1-.7-1.6V20.8c0-.6.2-1.1.7-1.6.4-.4 1-.7 1.6-.7.5 0 .9.1 1.3.4s.7.6.8 1.1c1.5-1 3.3-1.5 5.2-1.5 1.4 0 2.8.3 4 .8 1.3.6 2.4 1.4 3.3 2.6 2-2.3 4.4-3.4 7.3-3.4 1.3 0 2.5.3 3.7.8 1.2.5 2.2 1.2 3.1 2.1.9.9 1.6 1.9 2.1 3.1.5 1.2.8 2.4.8 3.7v12.2zm22.2-4.6c.6 0 1.2.2 1.6.6.4.4.6 1 .6 1.6 0 .6-.2 1.2-.6 1.6-2.2 1.9-4.8 2.9-7.9 2.9-3.3 0-6.2-1.2-8.5-3.5s-3.5-5.2-3.5-8.5 1.2-6.2 3.5-8.5 5.2-3.5 8.5-3.5 6.1 1.2 8.5 3.5c1.2 1.2 2.1 2.5 2.6 3.9.6 1.4.9 3 .9 4.6 0 .6-.2 1.2-.7 1.6-.4.4-1 .6-1.6.6h-17c.2.8.6 1.5 1.1 2.2.5.7 1 1.2 1.7 1.7.6.5 1.3.8 2.1 1.1.8.3 1.6.4 2.4.4.9 0 1.8-.1 2.6-.4.8-.3 1.5-.7 2.2-1.3.4-.4.9-.5 1.5-.6zm.9-7.5c-.2-.8-.6-1.5-1.1-2.2-.5-.7-1-1.2-1.7-1.7-.6-.5-1.3-.8-2.1-1.1-.8-.3-1.6-.4-2.4-.4s-1.6.1-2.4.4-1.5.6-2.1 1.1c-.6.5-1.2 1-1.7 1.7s-.8 1.4-1.1 2.2h14.6zm20.3-9.8c2.8 0 5.4.9 7.5 2.6V10.5c0-.6.2-1.2.6-1.6.4-.4 1-.6 1.6-.6.6 0 1.2.2 1.6.6.4.4.7 1 .7 1.6v20.1c0 3.4-1.2 6.2-3.5 8.5-2.4 2.3-5.2 3.5-8.5 3.5s-6.2-1.2-8.5-3.5-3.5-5.2-3.5-8.5 1.2-6.2 3.5-8.5c2.3-2.4 5.2-3.6 8.5-3.6zm7.5 12.1c0-1-.2-2-.6-2.9-.4-.9-.9-1.7-1.6-2.4-.7-.7-1.5-1.2-2.4-1.6-.9-.4-1.9-.6-2.9-.6-1.1 0-2 .2-3 .6-.9.4-1.7.9-2.4 1.6-.7.7-1.2 1.5-1.6 2.4-.4.9-.6 1.9-.6 2.9s.2 2 .6 2.9c.4.9.9 1.7 1.6 2.4.7.7 1.5 1.2 2.4 1.6.9.4 1.9.6 3 .6 1 0 2-.2 2.9-.6.9-.4 1.7-.9 2.4-1.6.7-.7 1.2-1.5 1.6-2.4.4-.9.6-1.9.6-2.9zm14-16.3c0 .7-.3 1.4-.8 1.9s-1.1.8-1.9.8-1.4-.3-1.9-.8-.8-1.1-.8-1.9.3-1.4.8-1.9 1.1-.8 1.9-.8 1.4.3 1.9.8.8 1.1.8 1.9zm-4.8 26.1V20.8c0-.6.2-1.2.7-1.6.4-.4 1-.7 1.6-.7.6 0 1.1.2 1.6.7.4.4.7 1 .7 1.6v19.6c0 .6-.2 1.2-.7 1.6-.4.4-1 .7-1.6.7-.6 0-1.1-.2-1.6-.7-.5-.5-.7-1-.7-1.6zm28.6 0V40c-1.1.9-2.2 1.5-3.5 2-1.3.5-2.6.7-4 .7-3.3 0-6.2-1.2-8.5-3.5s-3.5-5.2-3.5-8.5 1.2-6.2 3.5-8.5 5.2-3.5 8.5-3.5 6.1 1.2 8.5 3.5c2.3 2.3 3.5 5.2 3.5 8.5v9.8c0 .6-.2 1.1-.7 1.6-.4.4-1 .7-1.6.7-.6 0-1.2-.2-1.6-.7-.3-.6-.6-1.1-.6-1.7zM185.3 23c-1.1 0-2 .2-3 .6-.9.4-1.7.9-2.4 1.6-.7.7-1.2 1.5-1.6 2.4-.4.9-.6 1.9-.6 2.9s.2 2 .6 2.9c.4.9.9 1.7 1.6 2.4.7.7 1.5 1.2 2.4 1.6.9.4 1.9.6 3 .6 1 0 2-.2 2.9-.6.9-.4 1.7-.9 2.4-1.6.7-.7 1.2-1.5 1.6-2.4.4-.9.6-1.9.6-2.9s-.2-2-.6-2.9c-.4-.9-.9-1.7-1.6-2.4-.7-.7-1.5-1.2-2.4-1.6-.9-.4-1.8-.6-2.9-.6z"/><path d="M13.4 62.8l-3.8-9c-.1-.1-.1-.2-.1-.4s.1-.4.2-.6c.2-.2.3-.2.6-.2s.4.1.6.2c.1.1.1.2.2.3l3.2 7.6 3.2-7.6c0-.1.1-.2.2-.3.1-.2.3-.2.5-.2s.4.1.6.2c.2.2.2.3.2.6 0 .1 0 .3-.1.4l-5.8 14c0 .1-.1.2-.2.3-.2.2-.3.2-.6.2s-.4-.1-.6-.2c-.2-.2-.2-.3-.2-.6 0-.1 0-.3.1-.4l1.8-4.3zM25 63l-2.4-7.1-2.4 7.2c0 .1-.1.2-.2.2-.2.1-.3.2-.6.2s-.4-.1-.6-.2c-.2-.2-.2-.3-.2-.6 0-.1 0-.2.1-.3l3.1-9.3c0-.1.1-.2.2-.3.1-.1.3-.2.5-.2s.4.1.6.2c.1.1.1.2.2.3l2.4 7.2 2.4-7.2c0-.1.1-.2.2-.3.1-.1.3-.2.5-.2s.4.1.6.2c.1.1.1.2.2.3l3.1 9.3c0 .1.1.2.1.3 0 .2-.1.4-.2.6-.2.2-.3.2-.6.2-.2 0-.4-.1-.5-.2l-.2-.2-2.4-7.2-2.4 7.1c0 .1-.1.3-.2.4-.2.1-.3.2-.6.2s-.4-.1-.5-.2c-.1-.1-.2-.2-.2-.4zm10.6-4.1v3.9c0 .2-.1.4-.2.6-.2.2-.3.2-.6.2s-.4-.1-.6-.2c-.1-.2-.2-.4-.2-.6v-9.4c0-.2.1-.4.2-.6.2-.2.3-.2.6-.2s.4.1.6.2c.2.2.2.3.2.6v3.9h5.9v-3.9c0-.2.1-.4.2-.6.2-.2.3-.2.6-.2s.4.1.6.2c.2.2.2.3.2.6v9.4c0 .2-.1.4-.2.6-.2.2-.3.2-.6.2s-.4-.1-.6-.2c-.2-.2-.2-.3-.2-.6v-3.9h-5.9zm19.6-.8c0 1.5-.5 2.8-1.6 3.9s-2.4 1.6-3.9 1.6-2.8-.5-3.9-1.6-1.6-2.4-1.6-3.9.5-2.8 1.6-3.9 2.4-1.6 3.9-1.6 2.8.5 3.9 1.6 1.6 2.4 1.6 3.9zm-5.5-3.9c-1.1 0-2 .4-2.8 1.1s-1.1 1.7-1.1 2.8c0 1.1.4 2 1.1 2.8s1.7 1.1 2.8 1.1 2-.4 2.8-1.1 1.1-1.7 1.1-2.8c0-1.1-.4-2-1.1-2.8s-1.7-1.1-2.8-1.1zm13.8 3.5v-4.3c0-.2.1-.4.2-.6.2-.2.3-.2.6-.2s.4.1.6.2c.2.2.2.3.2.6v4.3l5.7-4.9c.1-.1.3-.2.5-.2s.4.1.6.2c.2.2.2.3.2.6s-.1.5-.2.6L67 58.1l4.9 4.2c.1.2.2.3.2.6s-.1.4-.2.6c-.2.2-.3.2-.6.2-.2 0-.4-.1-.5-.2l-5-4.3-.8.6v3.1c0 .2-.1.4-.2.6-.2.2-.3.2-.6.2s-.4-.1-.6-.2c-.2-.2-.2-.3-.2-.6v-3.1l-.7-.6-5 4.3c-.1.1-.3.2-.5.2s-.4-.1-.6-.2c-.2-.2-.2-.3-.2-.6s.1-.4.2-.6l4.9-4.2-4.8-4.1c-.1-.2-.2-.3-.2-.5s.1-.4.2-.6c.2-.2.3-.2.6-.2.2 0 .4.1.5.2l5.7 4.8zM82.3 62c-1.1 1.1-2.4 1.6-3.9 1.6s-2.8-.5-3.9-1.6-1.6-2.4-1.6-3.9.5-2.8 1.6-3.9 2.4-1.6 3.9-1.6 2.8.5 3.9 1.6 1.6 2.4 1.6 3.9v4.7c0 .2-.1.4-.2.6-.2.2-.3.2-.6.2s-.4-.1-.6-.2c-.2-.2-.2-.3-.2-.6V62zm-3.9-7.8c-1.1 0-2 .4-2.8 1.1s-1.1 1.7-1.1 2.8c0 1.1.4 2 1.1 2.8s1.7 1.1 2.8 1.1 2-.4 2.8-1.1 1.1-1.7 1.1-2.8c0-1.1-.4-2-1.1-2.8s-1.7-1.1-2.8-1.1zM93.6 61c.2 0 .4.1.6.2.2.2.2.3.2.6s-.1.4-.2.6c-1 .9-2.2 1.3-3.6 1.3-1.5 0-2.8-.5-3.9-1.6s-1.6-2.4-1.6-3.9.5-2.8 1.6-3.9 2.4-1.6 3.9-1.6 2.8.5 3.9 1.6 1.6 2.4 1.6 3.9c0 .2-.1.4-.2.6-.2.2-.3.2-.6.2h-8.5c.1.7.5 1.4 1.1 2 .8.8 1.7 1.1 2.8 1.1 1 0 1.8-.3 2.5-.9.1-.2.2-.2.4-.2zm.8-3.6c-.1-.7-.5-1.4-1.1-2-.8-.8-1.7-1.1-2.8-1.1s-2 .4-2.8 1.1c-.6.6-.9 1.2-1.1 2h7.8zm9.2 5.6l-2.4-7.1-2.4 7.2c0 .1-.1.2-.2.2-.2.1-.3.2-.6.2s-.4-.1-.6-.2c-.2-.2-.2-.3-.2-.6 0-.1 0-.2.1-.3l3.1-9.3c0-.1.1-.2.2-.3.1-.1.3-.2.5-.2s.4.1.6.2c.1.1.1.2.2.3l2.4 7.2 2.4-7.2c0-.1.1-.2.2-.3.1-.1.3-.2.5-.2s.4.1.6.2c.1.1.1.2.2.3l3.1 9.3c0 .1.1.2.1.3 0 .2-.1.4-.2.6-.2.2-.3.2-.6.2s-.4-.1-.5-.2l-.2-.2-2.4-7.2-2.4 7.1c0 .1-.1.3-.2.4-.2.1-.3.2-.6.2s-.4-.1-.5-.2c-.1-.1-.2-.2-.2-.4zm14.6-9.5c0-.2.1-.4.2-.6.2-.2.3-.2.6-.2s.4.1.6.2c.2.2.2.3.2.6v.6c1-.9 2.1-1.4 3.5-1.4s2.6.5 3.6 1.5 1.5 2.2 1.5 3.6v5.1c0 .2-.1.4-.2.6-.2.2-.3.2-.6.2s-.4-.1-.6-.2c-.2-.2-.2-.3-.2-.6v-5.1c0-1-.3-1.8-1-2.5s-1.5-1-2.5-1-1.8.3-2.5 1-1 1.5-1 2.5v5.1c0 .2-.1.4-.2.6-.2.2-.3.2-.6.2s-.4-.1-.6-.2c-.2-.2-.2-.3-.2-.6v-9.4zm13 14c0 .2-.1.4-.2.6-.2.2-.3.2-.6.2s-.4-.1-.6-.2c-.2-.2-.2-.3-.2-.6v-9.4c0-1.5.5-2.8 1.6-3.9s2.4-1.6 3.9-1.6 2.8.5 3.9 1.6 1.6 2.4 1.6 3.9-.5 2.8-1.6 3.9-2.4 1.6-3.9 1.6-2.8-.5-3.9-1.6v5.5zm0-9.4c0 1.1.4 2 1.1 2.8s1.7 1.1 2.8 1.1c1.1 0 2-.4 2.8-1.1s1.1-1.7 1.1-2.8c0-1.1-.4-2-1.1-2.8s-1.7-1.1-2.8-1.1c-1.1 0-2 .4-2.8 1.1s-1.1 1.8-1.1 2.8zm20.8 4.7c0 .2-.1.4-.2.6-.2.2-.3.2-.6.2s-.4-.1-.6-.2c-.2-.2-.2-.3-.2-.6v-.6c-1 .9-2.1 1.4-3.5 1.4s-2.6-.5-3.6-1.5-1.5-2.2-1.5-3.6v-5.1c0-.2.1-.4.2-.6.2-.2.3-.2.6-.2s.4.1.6.2c.2.2.2.3.2.6v5.1c0 1 .3 1.8 1 2.5s1.5 1 2.5 1 1.8-.3 2.5-1 1-1.5 1-2.5v-5.1c0-.2.1-.4.2-.6.2-.2.3-.2.6-.2s.4.1.6.2c.2.2.2.3.2.6v9.4zm2.8-8.5c1.1-1.1 2.4-1.6 3.9-1.6s2.8.5 3.9 1.6 1.6 2.4 1.6 3.9-.5 2.8-1.6 3.9-2.4 1.6-3.9 1.6-2.8-.5-3.9-1.6-1.6-2.4-1.6-3.9v-3.9c0-1.5.5-2.8 1.6-3.9s2.4-1.6 3.9-1.6h.4c1.1 0 2.2-.2 3.1-.7.1-.1.2-.1.4-.1s.4.1.6.2c.2.2.2.3.2.6s-.1.4-.2.5l-.2.2c-1.1.6-2.4.9-3.8.9h-.4c-1.1 0-2 .4-2.8 1.1s-1.2 1.7-1.2 2.8zm7.8 3.8c0-1.1-.4-2-1.1-2.8s-1.7-1.1-2.8-1.1c-1.1 0-2 .4-2.8 1.1s-1.1 1.7-1.1 2.8c0 1.1.4 2 1.1 2.8s1.7 1.1 2.8 1.1c1.1 0 2-.4 2.8-1.1s1.1-1.7 1.1-2.8zm4.4-4.6v3.9h3.5c.9 0 1.6.3 2.2.9.6.6.9 1.3.9 2.2 0 .9-.3 1.6-.9 2.2-.6.6-1.3.9-2.2.9h-4.3c-.2 0-.4-.1-.6-.2-.2-.2-.2-.3-.2-.6v-9.4c0-.2.1-.4.2-.5.2-.2.3-.2.5-.2s.4.1.6.2c.2.2.3.3.3.6zm3.5 8.5c.4 0 .8-.2 1.1-.5.3-.3.5-.7.5-1.1s-.2-.8-.5-1.1c-.3-.3-.7-.5-1.1-.5H167V62h3.5zm4.3-8.5c0-.2.1-.4.2-.6.2-.2.3-.2.6-.2s.4.1.6.2c.2.2.2.3.2.6v9.4c0 .2-.1.4-.2.6-.2.2-.3.2-.6.2s-.4-.1-.6-.2c-.2-.2-.2-.3-.2-.6v-9.4zm8.6-.4l4.3 9.4c0 .1.1.2.1.3 0 .2-.1.4-.2.6-.2.2-.3.2-.6.2s-.4-.1-.5-.2l-.2-.2-3.6-7.8-3.6 7.8c0 .1-.1.2-.1.2-.2.1-.3.2-.6.2s-.4-.1-.6-.2c-.2-.2-.2-.3-.2-.6 0-.1 0-.2.1-.3l4.3-9.4c0-.1.1-.1.1-.2.1-.1.3-.2.6-.2.2 0 .4.1.6.2 0 .1.1.1.1.2zm7.2.4v3.9h3.5c.9 0 1.6.3 2.2.9.6.6.9 1.3.9 2.2 0 .9-.3 1.6-.9 2.2-.6.6-1.3.9-2.2.9h-4.3c-.2 0-.4-.1-.6-.2-.2-.2-.2-.3-.2-.6v-9.4c0-.2.1-.4.2-.5.1-.2.3-.2.5-.2s.4.1.6.2c.3.2.3.3.3.6zm3.6 8.5c.4 0 .8-.2 1.1-.5.3-.3.5-.7.5-1.1s-.2-.8-.5-1.1c-.3-.3-.7-.5-1.1-.5h-3.5V62h3.5z" fill="#7a7b7a"/></svg>