<svg width="280" version="1.1" id="Слой_1" xmlns="http://www.w3.org/2000/svg" xmlns:xlink="http://www.w3.org/1999/xlink" x="0px" y="0px"
	 viewBox="0 0 765.4 198.4" style="enable-background:new 0 0 765.4 198.4;" xml:space="preserve">
<style type="text/css">
	.st0{fill-rule:evenodd;clip-rule:evenodd;fill:#00A147;}
</style>
<g>
	<path class="st0" d="M224.5,49.4l-0.7-7.9l-0.1-0.3l-6.3-10.1h-0.1c-0.4-0.4-0.9-0.5-1.5-0.4l-3.9-5.8h-0.3
		c-0.1-0.3-0.3-0.4-0.7-0.5l-5.4-2c-0.3-0.1-1.1,0-1.3,0.1l-6.2,4.2l-3-3.9c-0.2-0.6-0.7-1.1-1.4-1.1c-0.1,0-0.2,0-0.3,0l-3.9,0.7
		l-4.6,0.8c-0.1,0-0.7,0.3-0.8,0.4l-0.8,0.8l-2.7,2.6l-4,4l-0.4,0.4l-2.4,0.5l-1.9-2.3c0.1-0.9-0.7-1.9-1.7-1.6l-9.4,2.4
		c0,0-0.5,0.3-0.7,0.4l-3.2,3.8c1,0.6,2,1.2,3,1.9c-0.6-0.4-1.1-0.7-1.7-1.1l3-3.6l9.4-2.4l-5.4,6.3l11.4-3l0.3-0.1l3.8-3.6l2.7-2.7
		l1.7-1.7l4.4-0.7l4.2-0.7l-4.2,3.9l-4.6,4.2l4.6,0.5l3,0.3l12.5-8.3l5.5,1.9l-12.9,9.1l4,5.5l14.6-8.2l0.8,6.7l-15.8,8.1l-3.2,9.1
		l15.2-4.7l-5,10.5l-14.9,5.1l-3.8,5l-6.2,7.9l-0.1,0.1h0.1l6.2-0.3l6.4-0.4l-6.4,6.7l-4.6,4.8l-1.6,0.1l-2.7,0.1l-4,0.3l-3.5,0.3
		l-16.6,15.2l8.2,3.1l-8.6,7l-5.4,4.3l-1.1,0.9l-2.9-1.3l-0.3-0.1l-1.5-0.7l-2-0.9l-1.1-0.5l-0.7,0.5l-1.7,1.1l-3,2l-1.6,1.1
		l-3.1,2.1h-0.1l-0.9,0.7l-1.5,1.1l-1.6,1.1l-1.1,0.8l-2.3,1.5l1.2,8.6l-1.3,0.8l-1.7,0.9l-1.1,0.5L120,142l-2.4,1.3l-4.7,2.6
		l-3,1.6l-0.9-7.5l-1.5,0.7l-1.5,0.7l-2.4,1.2l-2.3,1.2l-2.7,1.3l-2.8,1.3l-1.3,0.7l-2.1,0.9l-2.6,7.2l-1.2,3.1l-1.2,0.3l-1.6,0.5
		l-0.3,0.1l-3.6,0.9l-4.3,1.2l-2.3,0.5l2.3-5.4l1.9-4l-1.9,0.4l-3,0.8l-1.6,0.4l-2.3,0.5l-0.4,0.1l-3.6,0.9l-1.2,1.6L62,162
		l-1.3,1.9l-1.9,2.6h-1.3l-2.8,0.1l-1.1,0.1h-0.7h-1.2h-0.1l-1.7,0.1l1.7-2.3l0.1-0.1l1.2-1.6l0.7-1.1l1.1-1.5l2.8-3.6l0.1-0.3
		l-0.1-0.1l-2.8-0.4l-1.1-0.3l-0.7-0.1l-1.2-0.1h-0.1l-1.6-0.4l-10.1,9l-2.7-3.9l8.6-8.2l-2.1-4.8l-9.5,6.2l-0.5-5l9.8-6.8l1.3-7.8
		l-7,3.9l2.8-6.3l9.3-4.7l1.7-3.8v-0.1l0.1-0.1l0.8-1.7c-0.3-1.1-0.5-2-0.8-3c0.1,0.4,0.1,0.8,0.3,1.2l-0.3-0.1h-0.1l-2.1-0.3
		l1.9-2.4c0.1,0.1,0.1,0.1,0.1,0.1c-0.1-0.6-0.2-1.2-0.4-1.9l-2.7,3.2c-0.4,0.5-0.3,1.2,0,1.7l1.7,3.4l-1.2,2.7l-9,4.6
		c-0.1,0-0.5,0.5-0.5,0.7l-3,6.2c-0.3,0.8,0.3,1.7,0.9,1.9l2.5,3.4l-7,5c-0.4,0.3-0.7,0.9-0.7,1.2v0l0.4,5.1
		c0.1,0.4,0.4,0.8,0.7,0.9l3.1,4.7l-0.1,0.1c-0.4,0.4-0.5,1.3-0.1,1.7l2.7,3.9c0.3,0.3,0.5,0.4,0.9,0.5l7.1,7.5h0.9l3.5-2.8l0.3,0.3
		v0.1h0.1l1.2,1.3l0.7,0.8l1.1,1.2l2.5,2.7l0.3,0.1l0.3,0.1l3-0.3H62l3.5-0.3l0.9-0.1l0.4-0.3l3.5-4.2l0.4-0.7l2.3-2.7l1.6-2
		l0.8-0.9l2.1,2.4l4.3,4.6l0.7,0.7l0.7,0.1l2.3-0.7h0.3l1.6-0.5l2.4-0.8l4.7-1.3l1.3-0.4l0.8-0.3l0.4-0.4l1.6-3.9l2.5-6.7h0.1
		l2.3-1.1l2.4-0.9l1.5-0.7l5.1-2.3l0.3,0.3l4.7,4.8l0.4,0.3l0.8,0.1l1.2-0.7l1.5-0.7l1.1-0.5l1.7-0.9l2.4-1.3l1.1-0.5l1.6-0.8
		l1.5-0.8l0.9-0.5l0.1-0.1l3-1.5l0.1-0.4l0.1-0.4l-0.1-0.5l-1.3-5.4v-0.1l-0.5-1.9l1.9-1.2l1.6-0.9l3-1.9l1.7-1.1l1.7-1.2l2-1.3
		l1.5-0.8l0.3-0.3l3.8-2.4l0.3,0.3l5.4,2.7l1.5,0.8l0.8-0.1l15.4-11.4l0.1-0.9l-4.8-7.2l7.5-7l3.5-3.2h0.5l2.7-0.1l6.2-0.4l3.2-0.3
		l0.4-0.3l11.3-12.5l0.1-0.8l-6-9l1.9-2.4l15.3-4.3l0.4-0.4l5.9-10.7v-0.7l-5.6-8.2l7.6-3.9L224.5,49.4z"/>
	<path class="st0" d="M57.4,133.7c-0.9-1.9-1.7-3.8-2.5-5.6c0,0.1-0.1,0.4-0.3,0.5c-0.4,1.1-0.8,2.1-1.1,3.1
		c-0.3,1.1-0.5,2.1-0.7,3.2c-0.3,1.5-0.3,2.7,0,3.9c0.1,0.9,0.4,1.7,0.7,2.4c0.3,0.7,0.7,1.2,1.1,1.7c0.3,0.4,0.5,0.7,0.9,1.1
		c0.5,0.5,1.2,0.9,1.9,1.3c0.9,0.5,2,0.9,3.2,1.3c0.4,0,0.9,0.1,1.3,0.3c1.1,0.1,2.3,0.3,3.5,0.3c1.5,0,3.1-0.1,4.8-0.4
		c0.1,0,0.3,0,0.4,0c0.8-0.1,1.5-0.3,2.3-0.4c0.5,0,1.1-0.1,1.6-0.3c0.9-0.3,2-0.4,3-0.7c1.5-0.4,2.8-0.8,4.3-1.3
		c1.2-0.3,2.4-0.7,3.6-1.2c0,0,0.1,0,0.3-0.1c0.5-0.1,1.1-0.4,1.6-0.5c0.8-0.3,1.6-0.7,2.4-0.9c1.5-0.7,3.1-1.3,4.7-2
		c0.4-0.1,0.8-0.4,1.3-0.7c0.9-0.4,1.9-0.8,2.8-1.2c0.8-0.5,1.7-0.9,2.7-1.3c0.8-0.4,1.5-0.8,2.3-1.2c0.8-0.4,1.6-0.8,2.4-1.3
		c0.5-0.3,0.9-0.5,1.5-0.8c1.7-0.9,3.6-2,5.4-3.1c1.6-0.9,3.2-1.9,4.7-2.8c0.8-0.5,1.6-1.1,2.4-1.5c0.5-0.4,0.9-0.7,1.5-0.9
		c0.4-0.3,0.7-0.5,1.1-0.7c0.5-0.4,1.1-0.8,1.7-1.2c0.8-0.5,1.6-1.1,2.4-1.6c0.4-0.3,0.7-0.5,1.1-0.8c0.5-0.4,1.1-0.8,1.6-1.1
		c0.5-0.4,0.9-0.8,1.5-1.2c0.4-0.1,0.7-0.4,0.9-0.7c0.1,0,0.1,0,0.1-0.1c1.1-0.7,2.1-1.5,3.1-2.1c0.5-0.4,1.1-0.8,1.6-1.2
		c0.7-0.5,1.3-1.1,1.9-1.5c0.4-0.3,0.7-0.5,1.1-0.8c0.5-0.5,1.1-0.9,1.7-1.3c0.5-0.5,1.2-0.9,1.7-1.5c0.7-0.5,1.3-1.2,2-1.7
		c0.5-0.4,0.9-0.7,1.5-1.1c0-0.1,0.1-0.3,0.3-0.3c1.3-1.2,2.7-2.4,4-3.6c1.9-1.6,3.6-3.2,5.4-4.8c8.3-7.9,15.3-15.7,20.5-23
		c1.5-2.1,2.8-4.2,4-6.2c1.1-1.7,1.9-3.4,2.7-5c4.2-8.5,4.7-15.3,0.8-19.1c-0.3-0.3-0.5-0.5-0.8-0.7c-0.8-0.7-1.7-1.1-2.7-1.5
		c-1.2-0.5-2.6-0.8-4-0.9c-2.8-0.3-6-0.1-9.8,0.5c-0.1-0.1-0.2-0.1-0.3-0.2c3.6,2.8,6.9,5.9,9.9,9.3h0.1h0.8l3.2,0.3l1.6,0.1
		l1.1,0.4l2,0.5c-0.1,2.3-0.8,5-2,7.8c-0.4,1.1-0.9,2.1-1.5,3.4c-0.4,0.7-0.8,1.5-1.2,2.3c-1.2,2-2.6,4.2-4,6.4
		c-4,5.9-9.4,12.2-15.7,18.7c-1.5,1.6-3.2,3.2-4.8,4.8c-1.7,1.6-3.5,3.4-5.4,5c-1.3,1.2-2.7,2.3-4,3.5c-0.1,0.1-0.3,0.3-0.3,0.3
		c-0.5,0.4-0.9,0.8-1.5,1.2c-0.7,0.5-1.3,1.1-2,1.7c-0.5,0.4-1.2,0.9-1.7,1.5c-0.7,0.4-1.2,0.8-1.7,1.3c-0.7,0.4-1.2,0.9-1.9,1.3
		c-0.4,0.4-0.7,0.7-1.1,0.9c-0.5,0.4-1.1,0.8-1.6,1.2c-0.9,0.7-2,1.5-3.1,2.3c0,0,0,0-0.1,0c-0.3,0.3-0.5,0.5-0.9,0.8
		c-0.5,0.3-0.9,0.7-1.5,1.1c-0.5,0.4-1.1,0.7-1.6,1.1c-0.4,0.3-0.7,0.5-1.1,0.8c-0.8,0.5-1.6,1.2-2.4,1.7c-0.7,0.4-1.2,0.7-1.7,1.1
		c-0.4,0.3-0.7,0.5-1.1,0.7c-0.5,0.4-0.9,0.7-1.5,0.9c-0.8,0.5-1.6,1.1-2.4,1.6c-1.5,0.9-3.1,1.9-4.7,2.8c-1.7,1.1-3.6,2.1-5.4,3.2
		c-0.5,0.3-0.9,0.5-1.5,0.8c-0.8,0.4-1.6,0.8-2.4,1.2c-0.8,0.4-1.5,0.8-2.3,1.2c-0.9,0.5-1.9,0.9-2.7,1.3c-0.9,0.5-1.9,0.9-2.8,1.3
		c-0.5,0.3-0.9,0.4-1.3,0.7c-1.6,0.7-3.2,1.3-4.7,2c-0.8,0.3-1.6,0.7-2.4,0.9c-0.5,0.3-1.1,0.4-1.6,0.7c-0.1,0-0.3,0-0.3,0
		c-1.2,0.5-2.4,0.9-3.6,1.3c-1.5,0.4-2.8,0.8-4.3,1.2c-0.9,0.3-2,0.5-3,0.7c-0.5,0.1-1.1,0.3-1.6,0.4c-0.8,0.1-1.5,0.3-2.3,0.4
		c-0.1,0-0.3,0-0.4,0c-0.1,0-0.4,0-0.5,0.1c-1.6,0.1-3,0.1-4.3,0.1c-1.2,0-2.4,0-3.5-0.3c-0.1,0-0.3,0-0.4,0
		c-0.3-0.1-0.7-0.1-0.9-0.3c-0.1,0-0.3-0.1-0.4-0.1l-0.1-3.2l0.3-2.7C59.3,137.5,58.3,135.6,57.4,133.7L57.4,133.7z"/>
	<path class="st0" d="M191.1,105.4l-0.8,0.1l-2.1,0.1c0.3,0.1,0.3,0.1,0.3,0.1c0,0,0,0,0,0c0,0,0,0,0,0c0,0,0,0,0,0c0,0,0,0,0,0
		c0,0,0,0,0,0s0,0,0,0c0,0,0,0,0,0c0.5,0.7,0.7,1.6,1.3,2.3c0,0.2,0,0.6-0.1,0.8C190.3,108.1,190.8,106.5,191.1,105.4z"/>
	<path class="st0" d="M51.1,94.1l1.1-5.6l1.8-5.6l1.2-2.9l0.9,2.2l1.6,2.4l2,2.2l2.6,2l3,1.9l3.5,1.5l3.1,1.2l-1.2,6.5l-0.9,7.2
		l-0.5,7.3l0.1,5.5l-3.2-1.4l-4-2.1l-3.3-2.4l-2.8-2.6l-2.1-2.8l-1.7-2.9l-1.1-3.1l-0.5-3.1L51.1,94.1L51.1,94.1z M54.4,76.6l0,0.3
		l-0.9,2.2L54.4,76.6L54.4,76.6z M59.1,71.9l-2.8,5.2l0.5,2l0.9,2.2l1.5,2.1l1.8,2l2.4,1.9l2.8,1.8l3.3,1.4l2.8,1.1l1.5-6.3l2.4-7.3
		l1.8-4.6c-0.2,0.1-0.4,0-0.5,0.1c-0.2,0.1-0.3,0.4-0.6,0.6c0,0-1.3,0.6-1.7,0c-0.3-0.5-0.9,0.1-1.3,0.1c0,0-0.2-0.3,0.3-0.5
		c0.2-0.1,0.3-0.1,0.3-0.2c0-0.2-0.2-0.2-0.3-0.3c-0.1-0.1,0.2-0.4,0-0.4c-0.3-0.1-0.5,0.2-0.8,0.2c-0.4-0.4,0.7-0.2,1-0.5
		c-0.1-0.1-0.2,0-0.3-0.1c-0.1-0.3,0.3-0.2,0.3-0.5c-0.2,0-0.8,0.2-1,0.3c-0.4,0.2-0.2-0.3-0.1-0.4c0.3-0.2,0.3-0.2,0.3-0.5
		c0-0.3,0.2-0.2,0.3-0.2c0.2,0.2,0.2,0,0.2-0.1c0-0.1-0.1-0.3,0.1-0.4c0.2-0.1,1,0.3,0.9,0.6c0,0.2-0.3,0.3-0.3,0.4
		c0,0,0.1,0.2,0.2,0.2c0.1-0.1,0.2-0.3,0.3-0.4c0.1-0.1,0.1,0,0.2,0c0.1-0.2-0.1-0.5,0.2-0.6c0.2-0.1,0.3,0.5,0.5,0.3
		c0.2-0.2,0.1-0.5,0.4-0.6c0.1,0,0.1,0.1,0.2,0.1c0.1,0,0.1-0.1,0.2-0.2c0.2-0.1,0.2,0.3,0.3,0.2c0.2-0.1,0.1-0.4,0.3-0.5
		c0,0,0.1,0,0.1,0c0.2,0.2,0.3,0.3,0.2-0.1c0-0.2,0-0.2,0.4-0.2c0.2,0,0.2,0.5,0.4,0.4c0.2-0.1,0-0.4,0.3-0.5c0,0,0,0,0,0
		c0,0,0.1,0.1,0,0.5c0,0,0,0,0,0l2.1-4.6l-1.5-0.4l-2.4-0.8l-2-1l-1.8-1.2l-1.6-1.3l-1.3-1.4l-0.8-1.5l0,0l-3.5,3.7l-4.1,5.1
		L59.1,71.9L59.1,71.9z M56.5,72l0.7-2.3l0.7-1.6l2.9-5.6l3.5-5.2l0.4-0.5l0.1,0l0.6-0.7l3.5-3.9l0.8-0.7l-0.3,1.3l-0.1,1.6l0.2,1.3
		l-4.3,4.6l-4.2,5.3L57.5,71l-1.2,2.2L56.5,72L56.5,72z M71.2,53.1l0.4-1.5l0.7-1.6l0.8-1.4l4.4-3l5-2.8l5.5-2.4l0.4-0.1v0.4
		l0.1,0.8l0,0.1l-2.1,1.1l-6.1,3.8L75,50.7l-3.8,3.4L71.2,53.1L71.2,53.1z M78.5,42.8l-0.6,0.5l3.8-2.1l5.7-2.5l1.4-0.5l0,0l0.3-0.8
		l0.5-0.9l0.8-0.8l0.2-0.3l-1.4,0.6l-0.9,0.4l0-0.1l-0.6,0.3l-5.4,3.3L78.5,42.8L78.5,42.8z M91.7,37l0.6-0.7l0.8-0.6l1-0.8l0.2-0.2
		l3.6-0.1l3.3,0.3l-1.6,0.2l-6.4,1.4l-1.8,0.6L91.7,37L91.7,37z M98.2,32.5l1.3-0.4l1.5-0.7l1.1-0.4l1.5-0.4l1.3-0.4l0.5-0.1
		l-0.1,0.4l-0.1,2V34l-3.3-0.8L98,32.8l-0.3,0L98.2,32.5L98.2,32.5z M105.9,42.6l-0.3-4l-0.1-1.5l-2.9,2.4l-4.2,4.2L98.1,44l1.1,0.1
		l1.5-0.1l1.4-0.1l1.4-0.2l1.7-0.2l0.7-0.1L105.9,42.6L105.9,42.6z M106.4,47l-0.2-1.8l-0.6,0.1l-1.8,0.2l-1.5,0.2l-1.5,0.1L99.2,46
		l-1.4-0.1l-1.2-0.1h0l-2.1,2.5l-3.9,5.2l-3.6,5.8l-2.7,5l1.5,0.3l2.9,0.4l3.1,0.2l3.3,0.1l3.5-0.2l1.4-0.1c0.2-0.2,0.3-0.4,0.5-0.5
		c-0.2,0-0.5,0.1-0.7,0.1c0.3-0.7,0.4-0.9,1.3-1.4c0-0.2-0.1-0.5-0.1-0.6c0.5-0.4,1-0.9,1.5-1.4c-0.4,0.2-0.9,0.3-1.3,0.3
		c0.4-0.1,0.8-0.3,1.2-0.5c0-0.2-0.1-0.5-0.1-0.7c1.1-0.2,1.2-0.3,2.2-1.3c0.1,0.2,0.3,0.4,0.4,0.5c0.2-0.3,0.7-0.6,1-0.7
		c-0.1-0.2-0.2-0.4-0.3-0.5c0.4-0.1,0.9-0.1,1.3,0c0.3-0.7,0.5-0.9,0.7-1.1l-0.6-4.5L106.4,47L106.4,47z M107.3,32.5l0.1-1.9l0.2-1
		l0.4-0.1l1.4-0.2l1.6-0.1l1.3-0.2l1.3-0.1l1.2,0.1h0.1l-0.3,0.1l-4.5,2.4l-2.9,1.9V32.5L107.3,32.5z M119,29.5l-3.6,1.3l-3.9,2.1
		l1.5-0.4l6.9-1.1l2.7-0.2l-0.4-0.3l-0.6-0.5l-0.7-0.3l-0.8-0.3l-0.8-0.4L119,29.5L119,29.5z M123.7,28.4l4.9-0.4L130,28l6.2,1
		l1.2,0.3l0,0l2.9,1.1l1.7,0.8l1.5,1l0.1,0.1l-3.2-0.6l-6.6-0.7h-6.8l-2.2,0.2l-0.1-0.2l-0.4-0.9l-0.8-0.5l-0.7-0.6l-0.5-0.3
		L123.7,28.4L123.7,28.4z M143.5,34.4c-0.1,0-0.2-0.1-0.2-0.1l0.3,0.1C143.7,34.4,143.6,34.4,143.5,34.4L143.5,34.4z M144,35.5
		c-0.1-0.1-0.1-0.3-0.2-0.4c-0.1-0.1-0.3-0.2-0.4-0.3c0,0,0,0,0-0.1c0,0,0,0,0.1,0c0,0,0,0-0.1-0.1c-0.7-0.3-0.4-0.4-0.4-0.4
		c0,0,0.1,0,0.1,0c0,0,0,0,0,0c0,0-0.1,0-0.2-0.1l0,0l-2.8-0.5l-6.5-0.7h-6.6L125,33v0.3l-0.1,0.9l-0.1,0.4l2.4,0.3l7,1.3l7,2l2.7,1
		c0.1-0.2,0.3-0.3,0.7-0.5c0-0.2,0-0.2,2-1.5c0.1,0.1,0.2,0.1,0.4,0.2l0-0.1c-0.3-0.2-0.6-0.5-0.8-0.7c0.2,0,0.4,0,0.6,0l0-0.1
		c-0.9-0.3-1-0.7-1.1-1.3c0.2-0.1,0.3-0.1,0.4-0.1l-0.2-0.3l-0.9-0.2c0,0,0,0,0,0c0,0-0.1,0.1-0.2,0.2c-0.1,0.1-0.2,0.1-0.3,0.4
		c-0.2,0.4-0.2,0.4-0.3,0.4C144.1,35.6,144,35.5,144,35.5L144,35.5z M148.2,32.4l5.8,2.5l1.8,1l-3-1.1l-5.8-1.7l-0.9-1.2l-0.5-0.4
		L148.2,32.4L148.2,32.4z M153.1,37.2c0,0.4-0.1,1-0.2,1.3c-0.9-1.1-1.5-1.9-1.9-2.4l1.3,0.4l0.3,0.1c-0.1,0-0.1,0-0.2,0
		c0.1,0.2,0.3,0.2,0.3,0.2c0,0,0,0,0,0c0,0,0,0,0-0.1c0,0,0,0,0,0c0,0,0.1,0,0.1,0c0,0,0,0,0,0l1.3,0.5c0,0.1,0.1,0.1,0.1,0.2
		C154,37.3,153.5,37.2,153.1,37.2L153.1,37.2z M148.5,35.6c0,0,0.1-0.1,0.1-0.1l-0.2,0L148.5,35.6L148.5,35.6z M146.5,48.8
		c-0.8-0.8-1-1-1.5-0.9l0.4-0.4c0.6,0.1,0.8,0.4,1.1,1c0.2,0,0.5,0,0.7,0C146.9,48.6,146.7,48.7,146.5,48.8L146.5,48.8z M143.2,51.6
		c2-1,2-1,1.7-2.6c-0.2-0.1-0.4-0.2-0.6-0.3c0,0,0-0.1,0-0.1l-0.5,0.6l-0.1,0.1c0.3,0.6,0.4,1.2,0.2,1.8c-0.4,0.1-0.9,0.2-1.3,0.2
		C142.8,51.4,143,51.5,143.2,51.6L143.2,51.6z M140.2,46.2c-0.2-0.4-0.4-0.9-0.5-1.2c-0.9-0.4-1.9,0-2.4,0.6c0.4,0.8,0.5,1,0.1,1.9
		c0.7,0.3,0.9,0.4,1.3,1.4c0.7-0.1,1.2,0.3,1.9,0.3c0.1,0.1,0.1,0.2,0.2,0.3l0,0l-0.4,0.3c-0.3,0-0.9,0-2.1-0.1
		c-0.2,0.1-0.4,0.1-0.6,0.2c-0.2-0.1-0.2-0.1-3,0.1c0,0.2,0.1,0.5,0.1,0.6c0.2,0.1,0.4,0.2,0.6,0.4c0,0.1-0.1,0.2-0.2,0.3l-1.1-0.9
		c0,0,0,0,0-0.1c0-0.1-0.2-0.2-0.4-0.3l-1.7-1.5l-2.4-1.8c0,0,0,0,0,0c0-0.1-0.2-0.2-0.2-0.3c0,0,0,0,0.2,0c0-0.1-0.1-0.2-0.1-0.3
		c0.1-0.1,0.1-0.1,0.2-0.1c-0.2-0.2-0.2-0.2,0.1-0.3c0-0.1,0-0.1-0.1-0.2c0.2-0.1,0.4,0,0.6-0.2c0.1,0,0-0.1-0.1-0.2
		c-0.1-0.1-0.2-0.2,0.3-0.7c0.8-0.9,2-1.4,2.8-2.3c0.1-0.1,0-0.4-0.1-0.4c-0.2-0.2-1.1,0-1.1,0c-0.6,0.3-0.8,1-1.4,1.3
		c-0.4,0.2-0.9,0.2-1.3,0.5c-0.1,0.1-0.2,0.2-0.3,0.4c0,0.1,0,0.1,0.1,0.2c-0.2,0.2-0.6,0.1-0.8,0.3c-0.5,0.4-0.3,0.6-0.3,0.7
		c-0.1,0-0.2,0-0.3,0.1c-0.1,0-0.1,0.1,0,0.2l-1-0.8l-5.2-3.4l0,0c0,0,0,0,0,0l-1.8-1l0.3-0.2l1.3-0.8l0.8-0.9l0.8-0.7l0.8-0.8
		l0.3-0.4l3.1,0.4l6.9,1.3l6.6,1.8c0,0,0,0,0,0c0.1,0,0.2,0.1,0.2,0.1c0,0,0,0,0,0l3.6,1.3c-0.4,0.1-0.9,0.4-1.8,1
		c0.7,1.1,1.9,1.2,3,1.6l-0.2,0.3c-0.3-0.3-0.3-0.3-0.3-0.3c0,0,0,0,0,0c0,0,0,0,0,0l0,0c0,0,0,0,0,0h0h0c0,0,0,0,0,0
		c-1.9-0.2-2.2-0.3-3,0.7c0.1,0.1,0.3,0.3,0.5,0.4c0.4,0,0.4,0,0.4,0h0c0,0,0,0,0,0h0h0h0l0,0c0.2,0,0.5,0,0.7,0
		c-0.1,0.1-0.3,0.3-0.5,0.5c-1.2,0-1.8-1.3-2.9-1.5c0.3,0.2,0.8,0.6,1,0.8c-0.1,0.2-0.3,0.4-0.4,0.5c0.4,0.6,0.6,0.9,2,2.1l-0.2,0.2
		C141.5,46.8,140.2,46.2,140.2,46.2L140.2,46.2z M129,48.8c0,0.1,0.1,0.3,0.5,0.5c0.1,0,0.2,0.1,0.4,0.2L129,48.8L129,48.8z
		 M131.3,53.5c0.5-0.5,1.3-0.8,1.9-1.2l-2.1-1.8l-0.1,0c0,0-0.1,0-0.1,0c-0.5-0.1-0.7,0.2-0.7,0.3c-0.2,0-0.3-0.1-0.5-0.1
		c-0.1,0-0.3,0.2-0.4,0.2c0,0,0,0-0.1,0c0,0-0.4-0.1-0.2-0.4c0.2-0.3-0.1-0.3-0.1-0.3c-0.1,0-0.2,0.3-0.4,0.2
		c-0.2-0.1-0.2-0.1-0.4,0c-0.1,0.1-0.2-0.1-0.4,0c-0.2,0-0.2,0.2-0.3,0.4c-0.2,0-0.8-0.6-0.7-0.8c0.4-0.4,0.4-0.4,0.4-0.7
		c0.1,0,0.1,0,0.2-0.1c0,0,0,0,0-0.1c-0.1-0.1-0.4-0.1-0.5-0.2c0,0,0,0,0-0.1c0.1-0.1,0.2,0,0.3-0.1c0.1-0.1,0-0.3,0.1-0.5
		c0.1-0.1,0.3-0.2,0.4-0.3c0,0,0,0,0,0l-0.2-0.2c0,0,0,0,0,0c-0.1,0-0.3,0.1-0.4,0.1c0,0,0-0.1,0-0.1c0-0.1,0.1-0.1,0.1-0.2
		l-1.6-1.2l-5.1-3.4l-1.6-0.9c-0.1,0.1-0.1,0.1-0.1,0.2c0,0,0.1,0.1,0.1,0.1c0,0-0.6,0.2-0.6,0.2c0,0,0,0,0,0
		c-0.1,0-0.1-0.1-0.2-0.1c-0.2,0.1-0.2,0.1-0.2,0.1c-0.2,0-0.2,0-0.3,0c0,0,0,0,0,0c0.1-0.1,0.4-0.1,0.5-0.2c0.1,0,0.1-0.1,0-0.2
		c0,0-0.1-0.1,0-0.1c0,0,0.1-0.1,0.4-0.1c0,0,0.1,0,0.1-0.1l-0.7-0.4l-0.1,0.1l-1.4,0.6l-1.4,0.6l-1.4,0.5l-1.6,0.7l-1.5,0.3
		l-1.5,0.4l-0.7,0.2l0.2,2.1l0.6,5.2l0.6,4.5c0.1-0.2,0.1-0.4,0.2-0.6c0.2,0,0.4-0.1,0.6-0.1c-0.1,0.2-0.2,0.4-0.2,0.6
		c0.1,0.1,0.3,0.3,0.5,0.4c0-0.2,0.1-0.4,0.1-0.6c0.4-0.1,0.9-0.2,1.3-0.3c0.1,0.2,0.3,0.4,0.4,0.6c-0.1,0.2-0.3,0.4-0.5,0.5
		c1.2-0.2,1.2-0.2,1.9-0.8c0.4,0.1,0.8,0.4,1.1,0.6c1.3-0.8,6.1-0.3,7.3,0.8c-1.1,3.1-4.4,1.5-6.6,2.3c0.9,0.1,1.1,0.2,1.9,0.6
		c0.1,0.3,0.1,0.5,0.2,0.6l2.8-0.9l1.5-0.6c0-0.1-0.1-0.2-0.1-0.3c1.6-1.6,1.6-1.6,3.1-1.4c-0.1-0.4-0.3-0.9-0.5-1.2h0c0,0,0,0,0,0
		h0h0l0,0c0,0,0,0,0,0c0,0,0,0,0,0c0,0,0,0-0.4-0.1c0.1-0.9,0.1-0.9-0.9-1.7c0.7,0,1.4-0.1,2.1-0.2c0.1,0.2,0.3,0.4,0.4,0.5
		c-0.2,0.1-0.4,0.3-0.5,0.4c0.2,0.3,0.6,0.7,1,0.9c1.8-1,2.7-2.9,4.2-4.2C130.5,52.9,131,53.2,131.3,53.5L131.3,53.5z M120.2,62.5
		L120.2,62.5C120.2,62.5,120.2,62.5,120.2,62.5C120.2,62.5,120.2,62.5,120.2,62.5L120.2,62.5z M129.7,102.4c-2.5,1.2-6.3,2.9-9.4,2
		c-0.8-0.2-1.8-0.4-2.6-0.4l-0.6-3.2l-0.4-2.3c0.1-0.1,0.3-0.3,0.4-0.4c-0.1-0.2-0.3-0.4-0.4-0.5c0.2,0,0.5,0,0.7-0.1
		c-0.3-0.3-0.7-0.7-1.1-0.9c0.5,0.1,1.1,0.3,1.5,0.5c-0.7-0.8-0.7-0.9-1.8-1.6l-0.1-0.5c0.3-0.1,0.6-0.3,0.8-0.4
		c-0.1-0.2-0.1-0.4-0.2-0.6c0.1-0.1,0.2-0.1,0.4-0.2l1.5-0.4c0.4,0.1,0.7,0.4,0.8,1.1c0.2-0.1,0.4-0.2,0.6-0.3
		c0.2,0.6,0.6,1.1,0.7,1.7c-0.2,0-0.5,0-0.7,0c1.4,1.3,1.4,1.3,2.1,1.4c0.1,0.2,0.3,0.4,0.4,0.5c0.1-0.2,0.3-0.4,0.4-0.5
		c0.4,0.2,0.9,0.3,1.3,0.3c0.2-0.3,0.6-0.7,0.8-1c3.1,0,3.1,0,3.5-0.9c0.4-0.1,0.9-0.3,1.2-0.4c0.2,0.1,0.4,0.3,0.6,0.4
		C129.9,98,132.1,100.4,129.7,102.4L129.7,102.4z M111.4,69.4c1.2-0.4,2.3-0.8,3.6-0.6c-0.2,0.3-0.5,0.6-0.8,0.8
		c-0.7,0.4-1.8,0.9-2.6,1.4l0-0.1L111.4,69.4L111.4,69.4z M103.2,94.1l-0.4,0l-2.9,0.2c0.1,0,0.2-0.1,0.3-0.1
		c0.1-0.2,0.1-0.4,0.2-0.6C101.6,93.1,102.5,93.5,103.2,94.1L103.2,94.1z M109.9,93.2l-1.3,0.2l-2.8,0.4c-0.8-0.5-1.5-1.1-2-2.2
		c0.7-0.4,0.9-0.5,1.1-1.1l0,0.1c0.4,0.7,0.6,0.9,1.6,0.8c1.2,1.1,1.2,1.1,2.2,1.3c0.1-0.1,0.2-0.1,0.2-0.2
		C109.3,92.8,109.4,93,109.9,93.2L109.9,93.2z M108.6,63.1l0.1,0.5l-1.4,0.3C107.7,63.4,108.1,63.1,108.6,63.1L108.6,63.1z
		 M115.4,39.9l0.4,0.2l-0.3,0.1l-1.3,0.6l-1.4,0.5l-1.5,0.7l-1.4,0.3l-1.6,0.4l-0.5,0.1l-0.1-0.5l-0.3-3.9l-0.1-1.9l3.3,1.2
		L115.4,39.9L115.4,39.9z M116.1,34l4.1-0.6l3-0.2v0.1l-0.1,0.6l-0.2,0.5l-0.1,0.1l-2.7-0.3L116.1,34L116.1,34z M120,36l-7-0.2
		l-1.8,0.1l0.1,0l4.9,2.3l1.4,0.8l0.2-0.1l1.1-0.6l1-0.6l0.7-0.8l0.8-0.7l0.1-0.1L120,36L120,36z M83.3,66l2.1,0.4l3.1,0.4l3.2,0.2
		l3.4,0.1l3.4-0.2c-0.2,0.4-0.5,0.7-0.7,1.1c0.2,0,0.5,0,0.7,0c-0.1,0.2-0.1,0.5-0.2,0.7c-2.1,0-4.1,3.6-4.1,3.6
		c0.4-0.1,0.9-0.2,1.3-0.3c0,0.2-0.1,0.4-0.2,0.6c-0.4-0.1-0.9,0.1-1.2,0.2c0.1,0.2,0.2,0.4,0.2,0.6c0.4-0.1,0.9-0.3,1.3-0.4
		c-0.2,0.4-0.6,0.8-0.9,1.1c0.6,1.2,0.6,1.2,0.4,1.9c0.2,0.1,0.4,0.3,0.6,0.4c0.2,0,0.2,0,0.2,0l0,0c0,0,0,0,0,0c0,0,0,0,0,0h0l0,0
		c0,0,0,0,0,0h0c0.8,0,1.7,0.1,3-2.2c0.2,0.1,0.4,0.1,0.6,0.2c0,0.3,0.6,2.1,1.8,2.7c0.1,0.4,0.2,1,0.4,1.4c0.2,0.1,0.5,0.1,0.6,0.2
		c1.6-1.5,1.6-1.5,2-1.6c0.1-0.7,0.1-0.7,0.4-3.4c0.3-0.2,0.7-0.6,1-0.9c-0.6,0-1.3,0.2-1.9,0.2c0.9-0.6,1-0.6,1.8-0.6
		c0.1-0.2,0.3-0.4,0.4-0.5c-2.1-1.9-2.1-1.9,0.7-6l1.7-0.3c-0.4,0.6-0.8,1.2-1.3,1.8c0.7,1.7,0.7,1.7,0.7,1.8c0,0.2,0,0.5-0.1,0.7
		c0.1,0.2,0.3,0.4,0.5,0.5c0.4-0.1,0.9-0.2,1.3-0.3l0.2,1.2l0.5,2.7c-0.2-0.1-0.5-0.3-0.7-0.3c-0.5,0.4-0.5,0.4-1.4,4.4
		c-0.1,0.1-0.3,0.3-0.5,0.5c-1.9-1.2-2.9,1.4-4.5,1.6c-0.1-0.1-0.3-0.3-0.5-0.4c-2.7,1.6-3.5,0.6-3.6-0.6c0.3-0.3,0.7-0.7,0.8-1.1
		c-0.2-0.4-0.4-0.9-0.5-1.3c-2.1,0.6-2.1,0.6-1,4.1c0.2,0.3,0.2,0.3,0.2,0.3h0h0h0c0,0.2,0,0.5-0.1,0.7c-1.1,0.3-1.1,0.3-1.6,0.7
		c-0.6,0.2-2.1,0.8-2.5,3.3c-1.5,1.2-1.5,1.2-1.5,1.9c-2,1.6-2,1.6-2.7,1.4c0.1,0.9,0.1,0.9-0.7,1.7c-0.2-0.1-0.4-0.2-0.5-0.3
		c-0.3,0.2-0.7,0.7-0.8,1.1c1.2,0.4,1.2,0.4,1.9,0.3c0.8,1.2,1.4,2.1,1.7,2.8l-5-0.2l-4.9-0.6l-4.5-0.7L74,92.3l1.6-6.3l2.3-7.1
		l2.7-6.8L83.3,66L83.3,66z M90.9,44.2l1,0.5l1,0.3l1.1,0.3l0.4,0.1L93,47.1l-4,5.3l-3.7,5.9l-3,5.5l-1.8-0.5l-2.2-0.8l-1.8-0.9
		l-1.6-1.1l-1.4-1.1l-1-1.2l-0.6-1.2l-0.3-0.8l4.6-4.2l5.4-4.1l5.9-3.7l2.1-1.1l0.6,0.4L90.9,44.2L90.9,44.2z M100,38.3l1.8-0.6
		l-0.4,0.3l-4.3,4.3l-1.3,1.5l-0.3,0l-0.9-0.3l-1.1-0.3l-0.8-0.3l-0.7-0.3l-0.5-0.4l2.1-1.1L100,38.3L100,38.3z M92.7,39.4l-2.4,1.3
		l0-0.2v-0.7l0-0.2l3.5-1.2l2.4-0.5L92.7,39.4L92.7,39.4z M115.7,106.5c-0.6-1.2-0.5-1.9,0.1-2.2l-0.6-3.1l-0.6-2.9c0,0,0,0,0,0
		c0,0,0,0,0,0l-0.1-0.7c-0.1,0-0.3,0.1-0.4,0.1c-1.1-1.2-1.1-1.2-1.3-1.6c-0.1,0-0.1,0-0.8-1.2l-2.6,0.4c0.7,0.3,1.4,0.5,2,1
		c-0.2,0.1-0.4,0.2-0.6,0.3c-0.2-0.1-0.4-0.2-0.6-0.3c-0.2,0.1-0.4,0.2-0.6,0.3c0.1,0.4,0.5,0.8,0.8,1c-0.3,0.7-0.3,0.9-1,1.9h0l0,0
		h0h0h0c0,0,0,0-0.3-0.5c0.1-0.2,0.2-0.4,0.3-0.6c-0.2-0.3-0.6-0.8-0.8-1.1c-0.2,0-0.5,0-0.7,0c-0.1-0.2-0.3-0.4-0.4-0.5
		c-0.2,0-0.4,0.1-0.6,0.2c-0.1-0.2-0.3-0.4-0.4-0.6c-0.5,0-0.9-0.2-1.3-0.4L103,96l-5.7,0.4h-1c-3.4,2.1-2.3,5.9-2.2,5.9
		c-0.1,0.2-0.3,0.4-0.4,0.6c0,0.2,0.1,0.5,0.2,0.7c-0.2,0.1-0.4,0.2-0.6,0.3c-0.7,1.7-2.7,1.7-3.8,2.8c-0.3-0.3-0.7-0.8-1-1.1
		c0,0-0.5,0.1-1.9,0.5L85,98.4c1.7-2,4.7,0.4,6.4-1.8c0.1-0.1,0.1-0.1,0.1-0.2l-5.1-0.2l-5-0.6l-4.6-0.7l-3.3-0.8l-1.2,6.2l-0.9,7.1
		l-0.5,7.1l0.1,6.2l4.3,1.5l5.5,1.1l3.9,0.6c0-1.5,0.2-3.7,0.9-5.4c0-0.3,0.1-0.8,0.1-1.1c4.5-2.4,1.9-7.5,4.1-10.7
		c1.1,0.9,1.3,0.7,2.3-0.1c0.2,0.1,0.4,0.3,0.5,0.4c1.5-0.3,2-1.6,3.1-2.5c0,0,0,0,0,0c0,0,0,0,0,0c0,0,0,0,0,0c0,0,0,0,0,0
		c0,0,0,0,0,0c0,0,0,0,0,0c0,0,0,0,0,0c0,0,0,0,0.3-0.1c2.2-1.3,2.5-1.3,3.8-1.1c0.7-0.7,1.4-0.9,2.3-0.8c0.6-0.5,0.7-0.6,1.7-0.9
		c0.1,0.1,0.3,0.3,0.5,0.4c0.2-0.1,0.4-0.3,0.6-0.4c-0.3,0.7-0.3,1,0.4,1.7c0,0.9,0,1.2-0.7,1.9c0.3,0.2,0.9,0.4,1.2,0.3
		c0.1,0.1,0.3,0.3,0.5,0.5c0,0,2.4,0.2,3.9,0C112,108.1,115.3,107.6,115.7,106.5L115.7,106.5z M48.7,99.4l0.1,3.7l0.1,3l0.1,0
		l0.5,5.1l1.2,6.2l1.9,6.2l1.4,3.6l-0.1,0.1l0.4,0.8l0.1,0.2l0.5,1.3l2.8,5.7l3.4,5.5l2.2,3c0.5,0,0.9,0,1.4,0c0.3,0,0.6,0,0.9,0
		l-3-4.1l-0.8-1.3l3.3,2.8l4,2.4c0.2,0,0.3,0,0.4,0c0,0,0.2,0,0.3,0c0.2,0,2-0.4,2.1-0.4c0,0,0.2-0.1,0.4-0.1l-2.1-1l-4.1-2.4
		l-3.4-2.8l-2.9-3l-2.2-3.2l-1.7-3.1l-1.8-4.6l-1.8-6.1l-1.2-6.1l-0.4-3.5l1.3,2.2l2.3,3l3,2.8l3.5,2.6l4.1,2.2l4.1,1.8l0.4,6
		l0.9,6.4l1.5,5.8l0.9,2.7c0.4-0.1,0.7-0.2,0.7-0.2l0.1,0c0.3,0,0.7-0.1,1.1-0.2l-1-2.9l-1.4-5.7l-0.9-6.2l-0.4-5.1l3.7,1.3l5.7,1.2
		l4.8,0.8c1.7,2.7,0.2,7,4.1,8.7c0.2-0.1,0.4-0.3,0.5-0.4c0.8,1.2,0.8,1.2,1.1,1.4c0.6,0.3,0.7,0.3,1.4,0.9c0.6-0.2,0.9-0.4,0.9-0.4
		l-0.2,0.1l1-0.5l0.5-0.2l0,0c0.8-0.4,1.8-0.8,2.7-1.3l0,0l0.9-0.4l1.8-0.9l1.2-0.6c0,0,1.1-0.6,1.1-0.6l2.4-1.2
		c0,0,1.3-0.7,1.4-0.8c0,0,5.3-3.2,5.4-3.2l0.2-0.1c1.5-0.9,3.1-1.8,4.5-2.7l2.5-1.7l0.1,0c0.4-0.2,0.8-0.4,1.3-0.8l0.2-0.1l0.2-0.1
		c0.1,0,0.2-0.1,0.4-0.2c0,0,0.2-0.2,0.3-0.2c0,0,1.3-0.8,1.3-0.8s0.4-0.3,0.5-0.3c0,0,1.1-0.8,1.1-0.8s1.3-1,1.3-0.9l0.4-0.3
		c0,0,0.6-0.4,0.6-0.5c0.1,0,0.9-0.6,0.9-0.6s0.7-0.5,0.7-0.5l0.4-0.3c0.3-0.3,0.7-0.6,1.1-0.8c0.3-0.2,0.5-0.4,0.7-0.6l0.4-0.4
		c0,0,0.1,0,0.2,0c0.8-0.6,2.7-2,2.7-2l0.4-0.3l-3.9-5c-0.3-0.3-0.8-0.7-1.2-0.9c0.5,0,0.5,0,1.9,0.8c0.1-0.2,0.1-0.5,0.2-0.7
		c0.1,0.1,0.3,0.3,0.5,0.5c0.2-0.1,0.5-0.1,0.7-0.2l3.8,4.1c0.1-0.1,0.2-0.1,0.2-0.2l0.2-0.1l0.9-0.7c0,0,0.7-0.5,0.9-0.7
		c0.5-0.5,1.1-0.9,1.8-1.3c0.5-0.4,1-0.9,1.7-1.5c0.7-0.7,1.4-1.2,2.1-1.8c0,0,1.2-1,1.4-1.1c0.1-0.1,0.2-0.2,0.2-0.2l0,0
		c0,0,0.2-0.2,0.5-0.4c-0.3-0.3-0.7-0.7-1.4-1.4c0.1-0.2,0.2-0.4,0.3-0.6c0.6-0.6,0.6-0.6,1.7-0.9c0.5,0.5,0.9,0.9,1.3,1.3
		c0.9-0.8,1.7-1.5,1.7-1.5c1.2-1,2.4-2.2,3.5-3.2c0,0,1.8-1.7,1.8-1.7l1.6-1.6c1.1-1,2.2-2.1,3.2-3.2C166,82.2,171.2,76,175,70.4
		c1.5-2.3,2.8-4.4,4-6.4c0.4-0.8,0.8-1.5,1.2-2.2c0-0.1,0.5-1.1,0.5-1.1l0.9-2.1l0-0.1c0.3-0.7,0.5-1.3,0.7-1.9l-2.5-3.4l-4.3-4.8
		l-4.8-4.4l-3.6-2.8l-0.6-0.7l-0.1,0.1l-0.8-0.6l-5.3-3.7l-5.6-3l-6-2.5l-6.1-2l-6.2-1.5l-6.4-1l-6.5-0.3l-6.4,0.1l-6.5,0.7
		l-3.9,0.8l-0.6-0.2l-0.1,0.3l-1.6,0.3l0,0l-6.2,1.8l-6,2.4L86.7,35l-5.6,3.4l-2.5,1.9l-0.1-0.1l-0.7,0.6l-0.6,0.5l-1.3,1l-4.8,4.3
		l-4.4,4.6l-4,5.1l-3.6,5.3l-3,5.7l-0.4,0.9l-0.1,0L55.4,69l-1.8,4.1l-2.1,6.2l-1.5,6.2L49,92l-0.4,6.2l0,0.5l-0.1,0L48.7,99.4z"/>
	<path class="st0" d="M195.2,108.3l-0.9,6.1l-0.4,1.8c-0.1,0.2-0.2,0.4-0.2,0.5c0,0,0,0,0.1-0.1l-1,3.9l-2,5.9l-1.5,3.4l-1.9,3.4
		l-0.7,1l-6.7,7.6l0.1-0.3l0.5-4.5v-4.9l-0.4-4.9l4-3.8l2.9-3.2c0,0,0,0.1,0,0.1c0,0.1-0.1,0.7,0,0.9l0.7,2.5c0.2,0,0.2,0,1-2.7
		c0.1-0.3,0-0.6,0-0.9c0,0,0,0-0.3,0.1c-0.1-0.3,0.1-0.5,0.1-0.7c0-0.2,0-0.2-0.3-0.2c-0.1-0.2,0-0.4,0-0.5l2.3-3.2
		c0,0.1-0.1,0.3-0.1,0.6l-0.3,1.4c0,0.1,0,0.2,0,0.3c0,0,0,0,0,0c0,0,0.1-0.1,0.1-0.1c0,0,0,0,0.1,0c0.1,0.7-0.4,1.3-0.2,2
		c0.1,0.2,0,0.2,0.3-0.1c0,0,0,0,0.1,0c0,0.2-0.1,0.4,0,0.6c0.1-0.3,0.1-0.3,0.1-0.3c0,0,0.1,0,0.1,0c0.2-0.2,0.1-0.4,0.2-0.6
		c0,0.1,0,0.2,0,0.2c0,0,0,0,0.1,0c0,0,0,0,0,0c0,0.1,0,0.1,0,0.2c0.1-0.2,0.1-0.2,0.1-0.2c0.1,0.3-0.1,0.5-0.1,0.8
		c0.1,0,0.5-0.7,0.6-0.9l0.8-2.8c0-0.1,0-0.2,0.1-0.4c0,0,0.3-1.5,0.4-1.6c0,0,0.1,0.1,0.1,0.1c0.1-0.1,0.1-0.2,0-0.6
		c-0.1-0.3-0.1-0.4,0-0.8c0.1-0.4,0-0.9,0.1-1.3c0,0,0.5-2,0.5-2l0,0l0.4-1c0,0.1,0,0.1,0,0.2c0,0,0.1-0.1,0.1-0.2c0,0,0-0.2,0-0.2
		l0.2-0.4c0,0,0,0,0,0c0,0,0.1-0.1,0.1-0.3l0.3-0.8c0,0.7-0.1,0.8,0,1c0-0.1,0-0.1,0.1-0.2c0,0.1,0,0.2,0,0.4c0-0.1,0.1-0.4,0.1-1
		c0-0.7,0.1-0.7,0.1-0.7c0,0.1,0,0.3,0,0.4c0-0.1,0-0.2,0-0.4L195.2,108.3L195.2,108.3z M180.6,144.5l-2,2.5l0.4-1.2l2.4-2.7
		C181.2,143.6,180.9,144,180.6,144.5L180.6,144.5z M177.4,144.8l0.9-3.6l0.5-4.3v-4.7l-0.3-3.5l-3.7,2.9l-5.5,3.8l-5.9,3.5l-6.5,3.2
		l-2.5,1.1c0.2,0.5,0.4,1.2,0.3,1.4c0,0.1,0,0.1-0.1,0.2c-0.6-0.2-0.6-0.2-0.6-0.1c0,0.1,0.1,0.3,0.1,0.4c0.1,0.2,0.1,0.2,0.1,0.3
		c0,0.3-0.4,0.5-0.4,0.8c0.1,0.6,0.1,0.6,0,0.9c-0.4,1.1-0.8,2.2-1.2,3.3c-0.4,1.4-0.6,1.9-0.6,1.9c-0.1,0.2-1,1-1.4,1
		c-1,0.1-1-0.5-1-0.5c0-0.2,0.2-0.4,0.1-0.6c-0.1-0.3-0.4-0.4-0.5-0.7c0-0.1,0-0.1,0.9-2.1c0.1-0.1,0.1-0.2-0.2-0.7
		c-0.2-0.4-0.4-0.6-0.3-0.9c0,0,0.6-1.4,0.8-1.6c0.2-0.1,0.3,0.1,0.5,0c0.1-0.1,0-0.3,0.2-0.3c0.1,0,0.2,0,0.3,0
		c0.1,0,0.1,0,0.3-0.3c0.1-0.2,0.1-0.2,0.4-0.1c0.1-0.1,0.1-0.1,0.1-0.3c0-0.2,0.1-0.4,0.1-0.5c0,0,0,0,0-0.1
		c0.1-0.2,0.4,0.1,0.5-0.1c0.1-0.2-0.1-0.4-0.1-0.5l-2.7,1.1l-3.5,1.3c-0.3,0.8-1.3,2.1-3.8,5.3c0.9,2,0.9,2-0.9,4.6
		c0.1,0.2,0.3,0.4,0.3,0.6c0,0.1-0.8,10.7-9.7,4.6l0.6,1.8l0.8,2.3l5.6-1.2l6.3-1.8l6.2-2.1l5.9-2.6l5.6-2.8l5.2-3.2l4.8-3.4
		L177.4,144.8L177.4,144.8z M176.1,148.4l-1.6,2.8l-1.8,2l-3.8,3.4l-5,3.7l-5.4,3.4l-5.6,2.8l-5.9,2.2l-6,1.8l-4.4,0.9l-0.2-0.2
		l-0.6-1.1l-0.9-1.7l-0.5-1.4l5.4-1.2l6.5-1.9l6.3-2.1l6-2.6l5.7-2.9l5.3-3.3l4.9-3.4L176.1,148.4L176.1,148.4L176.1,148.4z
		 M140.4,153.7C140.4,153.7,140.4,153.7,140.4,153.7c0,0-0.1,0-0.1,0C140.3,153.7,140.4,153.7,140.4,153.7L140.4,153.7z M191.1,115
		l-0.2,0.2c0,0,0,0,0,0.1c0.1,0,0.1-0.1,0.2-0.1c0,0,0,0.1,0,0.2c0,0,0,0,0,0c0,0,0.1,0,0.1-0.1c0.1-0.3,0.1-0.6,0.1-0.9L191.1,115
		L191.1,115z M194.7,104.6l-0.8,0.6l-0.1,0l-0.2,0.6l-1.7,4.2l-2.4,4.1l-0.7,1c-0.7-6.3-0.9-8.5-1-9.4l-1,0.1
		c0.1,0.6,0.2,1.1,0.2,1.3c0,0.6,0,0.6,0,0.6c0,3.4,0,3.4,0.2,3.7c0,0,0,0,0,0c0.1,0.3,0.2,0.6,0.3,0.9c0.3,1.2,0.3,2.6,0.6,3.8
		l-0.6,0.8c0-0.4-0.1-0.4-0.1-0.4c0,0-0.1,0-0.1,0c0-0.2,0.1-0.3,0.1-0.5c-0.1-0.3-0.4-0.3-0.6-0.5c-0.2-0.3,0-0.8-0.4-1.1
		c-0.4,0.1-0.7,0.1-1.1,0.2c-0.5,0.3,0.5,1.4,0.5,1.4c0,0,0.1,0,0.1-0.1c0,0,0,0,0.1,0c0.1,0.4,0,0.8,0.2,1.2
		c0.1,0.2,0.4,0.1,0.4,0.3c0,0.1,0,0.1,0,0.3c0,0,0,0.1,0,0.2l-0.1,0.2l-3.7,4.1l-3,2.9l-0.7-3.9l-1.3-5.1v0c0-0.2-0.2-0.9-0.4-1.5
		l-1.3-3.8c-0.9,0.8-1.8,1.7-2.7,2.5c0.7,1.5,1.2,2.5,1.2,2.5c0.2-0.1,0.5-0.2,0.6-0.2c0.1-0.2,0.2-0.4,0.3-0.6l0.2,0.6l1.5,5.9
		l0.9,5l-4.5,3.5l-5.4,3.7l-5.8,3.5l-6.3,3.1l-6.8,2.8l-2.9,1.1c-0.7-2-3.1-3.5-1.8-6.1c0.3-0.8,0.5-1.5,0.7-2
		c-0.5,0.3-0.9,0.6-0.9,0.6l-1.8,1.2l-1.8,1.1l-3,1.9c0,0-1.5,0.9-1.6,0.9c0,0-0.5,0.3-1,0.7c0.1,0.5,0.3,1.1,0.3,1.1s0,0.1,0,0.2
		c0.1,0.3,1.3,5.2,1.3,5.2l0.2,0.9l-0.3,0.8l-0.3,0.9c0,0-2.9,1.5-3.3,1.6c0,0-0.1,0.1-0.1,0.1L132,154l-1.5,0.8l-1.6,0.8
		c0,0-1,0.5-1,0.5c0,0-0.3,0.2-0.7,0.4l2.6,2.4l0.3,1l1.1,3.7l0.7,2l-5.3,0.9l-6.4,0.5l-6.3,0.2l-6-0.4l-5.8-0.7l-1.5-0.3
		c0,0.1,0,0.1,0,0.1l-0.7,1.7l1.9,0.4l6,0.7l6.1,0.4l6.5-0.2l6.5-0.5l5.7-0.9l0.7,1.8l0.9,1.8l0.4,0.7l-6,0.8l-6.3,0.2l-6.2-0.5
		l-6.2-0.9l-6.1-1.4l-4.3-1.5l-0.7,1.6l-0.1,0.1l4.6,1.6l6.2,1.5l6.4,0.9l6.4,0.5l6.5-0.2l6.4-0.8l0.9-0.2l0.3,0.3l0.3-0.4l4.7-0.9
		l6.1-1.9l6.1-2.3l5.8-2.9l5.5-3.4l5.2-3.8l3-2.7l0.1,0.1l0.8-0.9l0.9-0.8l4.4-4.7l4-5l3.5-5.4l3-5.7l1.1-2.5l0.7-1.3l-0.1-0.1
		l0.9-2.1l2-6.1l1.6-6.2l0.9-6.3l0.4-6.5l0-0.4L194.7,104.6z"/>
	<polygon class="st0" points="243.4,45.2 260.3,45.2 242.5,84.7 282.9,45.2 299.8,45.2 271.7,107.3 254.9,107.3 271.5,70.5 
		232.2,107.3 215.4,107.3 	"/>
	<polygon class="st0" points="307.9,45.2 324.8,45.2 313.9,69.2 336.6,69.2 347.4,45.2 364.3,45.2 336.2,107.3 319.4,107.3 
		330.8,82.1 308.1,82.1 296.7,107.3 279.9,107.3 	"/>
	<polygon class="st0" points="378.9,60 365,60 371.7,45.2 416.3,45.2 409.7,60 395.8,60 374.5,107.3 357.5,107.3 	"/>
	<polygon class="st0" points="423.6,45.2 461.7,45.2 455.6,58.8 434.2,58.8 429.3,69.6 449.4,69.6 443.5,82.9 423.3,82.9 
		418.5,93.4 440,93.4 433.7,107.3 395.6,107.3 	"/>
	<path class="st0" d="M473.8,73.3c0.3,0,0.6,0,0.9,0c0.3,0,0.5,0,0.8,0c0.3,0,0.5,0,0.8,0c0.1,0,0.3,0,0.4,0c0.1,0,0.3,0,0.4,0
		c2.4-0.1,4.9-0.5,7.3-1.4c2.4-0.9,4.4-2.8,5.8-5.9l0.3-0.6c1.2-2.7,1.1-4.5-0.3-5.4c-1.5-0.9-3.3-1.4-5.4-1.5
		c-0.4-0.1-0.7-0.1-1.1-0.1c-0.4,0-0.8,0-1.2,0h-2.8L473,73.2C473.2,73.2,473.5,73.2,473.8,73.3L473.8,73.3z M488.7,84.6
		c-5,1.5-10,2.3-14.9,2.4c-0.3,0-0.6,0-0.9,0c-0.3,0-0.6,0-0.9,0c-0.5,0-0.9,0-1.3,0c-0.4,0-0.8,0-1.2,0c-0.5,0-0.9,0-1.3,0
		c-0.4,0-0.8,0-1.3,0l-9.3,20.6h-16l28-62.1h19.6c0.8,0,1.7,0,2.5,0c0.8,0,1.7,0,2.5,0.1c3.3,0.1,6.3,0.7,9,1.7
		c2.7,1,4.4,2.9,5.3,5.8c0.5,1.4,0.6,3,0.5,4.8c-0.2,1.8-0.5,3.6-1.1,5.4c-0.2,0.5-0.4,1.1-0.6,1.7c-0.2,0.6-0.5,1.1-0.7,1.7
		c-0.6,1.2-1.2,2.5-1.9,3.8c-0.7,1.3-1.5,2.5-2.3,3.6C498.2,79.4,493.7,83,488.7,84.6z"/>
	<path class="st0" d="M543.5,63.7c1-2.3,0.9-3.8-0.4-4.7c-1.3-0.8-3-1.3-5-1.5c-0.2-0.1-0.5-0.1-0.8-0.1c-0.3,0-0.6,0-0.9,0H532
		l-5.7,12.6c0.3,0,0.7,0,1,0c0.4,0,0.7,0,1.1,0c0.2,0.1,0.3,0.1,0.5,0.1c0.2,0,0.3,0,0.5,0c0.3,0,0.5,0,0.7,0c0.2,0,0.4,0,0.6,0
		c0.2,0,0.4,0,0.6,0c0.2,0,0.5,0,0.7,0c2-0.1,4-0.5,6-1.2c2-0.7,3.6-2.1,4.8-4.2L543.5,63.7L543.5,63.7z M516.6,94.6
		c0.5,0,0.9,0,1.5,0c0.2,0.1,0.5,0.1,0.7,0.1c0.3,0,0.5,0,0.8,0c0.3,0,0.5,0,0.8,0c0.3,0,0.5,0,0.8,0c0.2,0,0.4,0,0.6,0
		c0.2,0,0.5,0,0.7,0c2.3-0.1,4.6-0.5,6.9-1.2c2.3-0.7,4-2.2,5.2-4.4l0.6-1.3c1.1-2.5,0.9-4.2-0.6-5.1c-1.6-0.9-3.4-1.4-5.7-1.5
		c-0.3,0-0.5,0-0.7,0c-0.2,0-0.5,0-0.7,0h-6l-6.1,13.5C515.7,94.6,516.1,94.6,516.6,94.6L516.6,94.6z M541.3,45.2c1.2,0,2.5,0,3.9,0
		c1.4,0,2.7,0.1,4,0.2c4.3,0.4,7.9,1.5,10.9,3.4c3,1.9,3.4,5.4,1.3,10.6l-0.6,1.3c-1.7,3.8-4,6.6-6.9,8.6c-2.9,2-6.4,3.4-10.4,4.5
		c4.3,0.5,7.1,2.1,8.3,4.9c1.2,2.8,0.8,6.4-1.2,10.8l-0.7,1.6c-3,5.9-7,9.9-12.2,12c-5.2,2.1-10.3,3.4-15.6,3.9
		c-1.9,0.2-3.8,0.3-5.6,0.3c-1.8,0-3.6,0-5.2,0h-17.6l28-62.1H541.3z"/>
	<polygon class="st0" points="576.8,45.2 614.9,45.2 608.8,58.8 587.3,58.8 582.4,69.6 602.6,69.6 596.6,82.9 576.4,82.9 
		571.7,93.4 593.1,93.4 586.9,107.3 548.7,107.3 	"/>
	<path class="st0" d="M657.9,66.1c-1.1-2.2-2.6-4-4.3-5.4c-1.7-1.4-4.1-2-7.2-2H645c-4.7,0.4-9,2.3-13,5.8c-4,3.4-7,7.2-9,11.2
		c-0.1,0.1-0.1,0.3-0.2,0.4c-0.1,0.2-0.1,0.3-0.2,0.4c-1.6,3.6-2.2,7.1-1.8,10.3c0.4,3.2,2.3,5.4,5.5,6.5c0.8,0.3,1.6,0.5,2.3,0.6
		c0.8,0.1,1.5,0.2,2.2,0.2c2.9,0,5.8-0.7,8.8-2.2c3-1.5,6.1-3.3,9.2-5.4l-8.4,18.5c-1.1,0.4-2.1,0.7-3.2,1.1c-1,0.3-2.1,0.6-3.1,0.9
		c-2,0.5-3.9,0.8-5.8,1.1c-1.9,0.3-3.8,0.4-5.6,0.4c-0.4,0-0.8,0-1.1,0c-0.4,0-0.7,0-1.1,0c-0.4,0-0.8,0-1.1,0
		c-0.3,0-0.7-0.1-1.1-0.1c-7.8-0.8-12.8-4.3-14.9-10.6c-2.1-6.3-1.3-13.4,2.3-21.5c3.6-8,9.3-15.1,17-21.4
		c7.7-6.3,15.9-9.9,24.6-10.9c0.3,0,0.7,0,1,0c0.3,0,0.7,0,1,0c0.3,0,0.6,0,0.9,0c0.3,0,0.7,0,1,0c2.9,0,5.5,0.3,8.1,1
		c2.5,0.7,4.8,1.6,7,2.8L657.9,66.1z"/>
	<polygon class="st0" points="665.6,107.3 648.8,107.3 676.8,45.2 733.2,45.2 705.1,107.3 688.3,107.3 710.2,58.8 687.6,58.8 	"/>
	<path class="st0" d="M682.9,155.9h-491l4.9-10.5h23.5l2.9-5.1h-24l4.7-10h24l2.9-5.1h-24.5l4.5-9.6h491l-4.5,9.6h-21.6l-2.9,5.1
		h22.1l-4.7,10h-22.1l-2.9,5.1h22.6L682.9,155.9z M251.1,145c3.9-0.1,7.1-1.1,9.5-2.8c2.4-1.8,4.3-4,5.6-6.6
		c1.3-2.7,1.5-4.9,0.8-6.6c-0.8-1.8-3-2.7-6.8-2.8l1.1-2.4h-4.8l-1.1,2.4c-3.8,0.1-6.9,1.1-9.4,2.7c-2.5,1.7-4.4,3.9-5.7,6.7
		c-1.3,2.7-1.5,4.9-0.8,6.6c0.7,1.8,3,2.7,6.8,2.9l-1.4,2.8h4.8L251.1,145L251.1,145z M253.1,140.9l5.2-10.8c3.9,0,5,1.7,3.3,5.2
		c-0.7,1.4-1.4,2.5-2.1,3.2c-0.7,0.7-1.7,1.3-2.8,1.7C255.6,140.7,254.4,140.9,253.1,140.9L253.1,140.9z M248.3,140.9
		c-3.9,0-5-1.8-3.3-5.2c0.9-1.9,2-3.2,3.4-4.2c1.4-0.9,3.1-1.4,5.1-1.4L248.3,140.9L248.3,140.9z M267.3,147.8l11.6-24.2h17.9
		l-2,4.1h-13l-2.6,5.4h12.1l-2,4.1h-12.1l-3.1,6.6h13.5l-2,4.1H267.3L267.3,147.8z M306.5,123.6l-1.2,2.6c-2,4.2-3.8,7.6-5.4,10.4
		c-1.6,2.7-3.4,5.1-5.4,7.2h-2.1l-4.5,9.4h4.1l2.5-5.3h15.2l-2.5,5.3h4.1l4.5-9.4h-2.1l9.6-20.1H306.5L306.5,123.6z M309.2,127.7
		h7.1l-7.7,16h-9.2C302.5,140.3,305.7,135,309.2,127.7L309.2,127.7z M320.1,147.8l11.6-24.2h17.9l-2,4.1h-13l-2.6,5.4h12.1l-2,4.1
		h-12.1l-3.1,6.6h13.5l-2,4.1H320.1L320.1,147.8z M345.8,147.8h4.9l4.4-9.1h3.2c2.2,0,3.9-0.1,5.2-0.3c0.9-0.2,2-0.6,3.1-1.1
		c1.1-0.6,2.2-1.4,3.2-2.4c1-1,1.9-2.3,2.6-3.7c0.9-1.9,1.2-3.5,0.9-4.7c-0.4-1.2-1.1-2-2.3-2.4c-0.8-0.2-2.7-0.4-5.6-0.4h-7.8
		L345.8,147.8L345.8,147.8z M360.3,127.7h2.3c1.8,0,2.9,0.1,3.4,0.2c0.7,0.1,1.2,0.5,1.4,1.1c0.2,0.6,0.1,1.3-0.3,2.2
		c-0.3,0.7-0.8,1.3-1.5,1.9c-0.6,0.5-1.3,0.9-2.1,1.2c-0.8,0.3-2.1,0.4-4,0.4H357L360.3,127.7L360.3,127.7z M389,147.8h-5.3l0.5-5.5
		h-9.7l-4.6,5.5h-5.2l21-24.2h5.2L389,147.8L389,147.8z M384.7,138.2l0.9-9l-7.6,9H384.7L384.7,138.2z M407.3,123.6l-6.6,13.8
		l-2,4.2c-0.5,1.1-1,1.8-1.5,2c-0.5,0.3-1.2,0.4-2.3,0.4l-1.1,0l-1.8,3.8c1.5,0.1,2.5,0.2,3,0.2c1.6,0,3-0.3,4.1-1
		c1.1-0.7,2-1.6,2.8-2.7c0.8-1.2,1.8-3.2,3.3-6.2l4.9-10.3h7.3l-9.6,20.1h4.9l11.6-24.2H407.3L407.3,123.6z M432.5,123.6h4.9
		l-4.6,9.7h6.5c3.1,0,5,0.7,5.6,2.2c0.7,1.4,0.5,3.2-0.4,5.2c-0.8,1.6-1.9,3.1-3.3,4.2c-1.4,1.2-2.7,1.9-4,2.4
		c-1.3,0.4-2.9,0.6-4.9,0.6h-11.4L432.5,123.6L432.5,123.6z M427.7,143.7h4.7c1.5,0,2.6-0.1,3.3-0.2c0.7-0.1,1.4-0.5,2.1-1
		c0.7-0.5,1.3-1.2,1.6-1.9c0.5-1.1,0.5-1.9,0-2.4c-0.6-0.5-1.8-0.8-3.7-0.8h-5L427.7,143.7L427.7,143.7z M448.1,147.8h4.9l5.1-10.6
		h9.5l-5.1,10.6h4.9l11.6-24.2h-4.9l-4.6,9.5h-9.5l4.6-9.5h-4.9L448.1,147.8L448.1,147.8z M497.4,147.8h-5.3l0.5-5.5H483l-4.6,5.5
		h-5.2l21-24.2h5.2L497.4,147.8L497.4,147.8z M493.1,138.2l0.9-9l-7.6,9H493.1L493.1,138.2z M517.6,147.8h4.9l11.6-24.2h-10.3
		c-2.4,0-4.3,0.2-5.7,0.6c-1.4,0.4-2.7,1.2-4,2.3s-2.3,2.4-3,3.9c-0.8,1.7-1,3.1-0.6,4.4c0.4,1.2,1.7,2,3.7,2.4
		c-1.3,0.6-2.5,1.3-3.6,2c-1,0.7-2.6,2.1-4.7,3.9l-5.2,4.7h5.8l6-5.3c2.6-2.3,4.4-3.7,5.2-4.1c0.9-0.5,2.1-0.7,3.6-0.7h1
		L517.6,147.8L517.6,147.8z M527.2,127.7l-2.9,6.1h-3.6c-2,0-3.3-0.1-3.9-0.2c-0.6-0.1-1-0.4-1.2-0.9c-0.2-0.5-0.1-1.2,0.3-2
		c0.4-0.8,0.9-1.5,1.6-2c0.7-0.5,1.4-0.8,2-0.9c0.6-0.1,1.9-0.1,3.9-0.1H527.2L527.2,127.7z M569,138.9c-1.3,1.8-2.6,3.1-3.9,3.9
		c-1.3,0.8-2.6,1.2-3.9,1.2c-1.8,0-2.9-0.6-3.4-1.9c-0.5-1.3,0-3.5,1.5-6.5c1.4-2.9,2.9-5,4.7-6.2c1.7-1.3,3.5-1.9,5.3-1.9
		c1.3,0,2.2,0.4,2.8,1.1c0.6,0.7,0.7,1.7,0.4,3l5.4-1.1c0.4-1.9,0.3-3.4-0.3-4.5c-1-1.8-3-2.6-6-2.6c-3.4,0-6.7,1.1-9.8,3.3
		c-3.1,2.2-5.7,5.4-7.6,9.4c-1.8,3.8-2.2,6.8-1.2,9c1,2.2,3.1,3.3,6.3,3.3c2.6,0,5-0.6,7.4-1.9c2.3-1.3,4.5-3.3,6.5-5.9L569,138.9
		L569,138.9z M576.8,147.8l11.6-24.2h17.9l-2,4.1h-13l-2.6,5.4h12.1l-2,4.1h-12.1l-3.1,6.6h13.5l-2,4.1H576.8L576.8,147.8z
		 M607.8,147.8h4.9l9.6-20.1h7.1l2-4.1h-19.2l-2,4.1h7.2L607.8,147.8L607.8,147.8z M637.8,123.6h4.9l-4.6,9.7h6.5
		c3.1,0,5,0.7,5.6,2.2c0.7,1.4,0.5,3.2-0.4,5.2c-0.8,1.6-1.9,3.1-3.3,4.2c-1.4,1.2-2.7,1.9-4,2.4c-1.3,0.4-2.9,0.6-4.9,0.6h-11.4
		L637.8,123.6L637.8,123.6z M637.8,143.7c1.5,0,2.6-0.1,3.3-0.2c0.7-0.1,1.4-0.5,2.1-1c0.7-0.5,1.3-1.2,1.6-1.9
		c0.5-1.1,0.5-1.9,0-2.4c-0.6-0.5-1.8-0.8-3.7-0.8h-5l-3,6.4H637.8z"/>
</g>
</svg>
