<svg width="195" version="1.1" id="Слой_1" xmlns="http://www.w3.org/2000/svg" xmlns:xlink="http://www.w3.org/1999/xlink" x="0px" y="0px"
	 viewBox="0 0 365.5 162.2" style="enable-background:new 0 0 365.5 162.2;" xml:space="preserve">
<style type="text/css">
	.st0{fill:#002D62;}
	.st1{fill:#626261;}
</style>
<g>
	<g>
		<path class="st0" d="M97.3,21.2L84.8,71.3l36.7,5.2c0.6-3.3,1-6.6,1-10.1C122.4,47.4,112.4,30.6,97.3,21.2 M48.9,84.9
			c-0.9-1.7-0.8-3.8,0.2-5.4l40.5-62.4c-6.4-2.7-13.4-4.2-20.7-4.2c-29.6,0-53.6,24-53.6,53.5c0,29.6,24,53.5,53.6,53.5
			c22,0,40.9-13.3,49.1-32.3H53.6C51.7,87.7,49.9,86.6,48.9,84.9"/>
		<path class="st0" d="M149.9,77.8c0,3.1,1.3,5.4,3.2,6.9c1.8,1.4,4.4,2.1,7.2,2.1c3.7,0,9.1-1.7,9.1-6.6c0-4.8-6-5.7-9.4-6.6
			c-12.2-3.2-27.4-3.6-27.4-20.3c0-14.9,15.3-19,26.9-19c12.9,0,26.5,3.9,27.1,20.1h-17.8c0-2.6-0.9-4.3-2.5-5.4
			c-1.6-1.1-3.7-1.6-6.1-1.6c-3.2,0-8.3,0.4-8.3,4.7c0,5.9,12.9,6.9,21.8,9c11.9,2.5,15,11.6,15,16.7c0,16.6-15,22.1-28.3,22.1
			c-14,0-28.3-4.9-28.8-22.2H149.9z"/>
		<path class="st0" d="M233.6,59c-0.1-5.3-4.5-9-9.4-9c-10.8,0-12.5,9.7-12.5,18.3c0,8,3.3,16.3,11.5,16.3c6.7,0,10.1-4.1,11-10.6
			h18.7c-1.7,16.6-14,26.2-29.6,26.2c-17.7,0-30.9-12.8-30.9-31.8c0-19.7,11.9-33.8,30.9-33.8c14.6,0,27.7,8.1,29.1,24.5H233.6z"/>
		<path class="st0" d="M258,36.2h18.7v8.5h0.2c3.5-6.2,9.8-10.3,16.9-10.3c7.4,0,14,2.5,17.1,10c4.7-6.6,10.4-10,18.4-10
			c18.7,0,20.8,14.9,20.8,26.8v37.1h-19.3V61.8c0-6.7-3.1-10.6-8.1-10.6c-8.3,0-9.1,6.7-9.1,16.7v30.4h-19.3V63
			c0-7.3-2-11.8-7.3-11.8c-6.9,0-9.9,4.2-9.9,16.9v30.2H258V36.2z"/>
		<path class="st1" d="M349.9,130.3h-2.1l-3.5,10.4l-3.6-10.4h-2.1l4.7,12.7l-0.9,2.5c-0.4,1.2-0.8,1.6-2.1,1.6h-0.6v1.7h0.8
			c0.9,0,1.8-0.2,2.5-0.9c0.4-0.3,0.7-0.8,0.9-1.5L349.9,130.3z M334.4,136.7c0,2.4-0.4,4.9-3.2,4.9c-2.8,0-3.2-2.4-3.2-4.9
			c0-2.4,0.4-4.9,3.2-4.9C334,131.9,334.4,134.3,334.4,136.7 M336.3,143.7v-13.4h-1.9v1.5c-1.1-1.4-2.2-1.7-3.6-1.7
			c-1.3,0-2.5,0.4-3.2,1.1c-1.3,1.3-1.6,3.3-1.6,5.4c0,2.1,0.3,4.1,1.6,5.4c0.7,0.7,1.8,1.2,3.1,1.2c1.4,0,2.6-0.3,3.6-1.7v2
			c0,2.2-1.1,4-3.6,4c-1.5,0-2.2-0.4-3.1-1.3l-1.2,1.2c1.4,1.2,2.4,1.7,4.4,1.7C334.3,149.2,336.3,146.9,336.3,143.7 M321.1,136.8
			c0,1.4-0.1,3.1-1,4c-0.6,0.6-1.4,0.9-2.4,0.9s-1.7-0.3-2.3-0.9c-0.9-0.9-1.1-2.6-1.1-4c0-1.4,0.1-3.1,1.1-4
			c0.6-0.6,1.4-0.9,2.3-0.9s1.8,0.3,2.4,0.9C321,133.7,321.1,135.4,321.1,136.8 M323,136.8c0-2-0.3-3.8-1.6-5.2
			c-0.9-0.9-2.1-1.5-3.7-1.5c-1.6,0-2.8,0.6-3.7,1.5c-1.3,1.3-1.6,3.2-1.6,5.2c0,2,0.3,3.8,1.6,5.2c0.9,0.9,2.1,1.5,3.7,1.5
			c1.6,0,2.8-0.6,3.7-1.5C322.7,140.6,323,138.8,323,136.8 M310.7,143.3v-1.6h-1c-1.3,0-1.7-0.6-1.7-1.9v-15.2h-1.9v15.3
			c0,2,1,3.4,3.3,3.4H310.7z M300.4,136.8c0,1.4-0.1,3.1-1,4c-0.6,0.6-1.4,0.9-2.4,0.9s-1.7-0.3-2.3-0.9c-0.9-0.9-1.1-2.6-1.1-4
			c0-1.4,0.1-3.1,1.1-4c0.6-0.6,1.4-0.9,2.3-0.9s1.8,0.3,2.4,0.9C300.4,133.7,300.4,135.4,300.4,136.8 M302.3,136.8
			c0-2-0.3-3.8-1.6-5.2c-0.9-0.9-2.1-1.5-3.7-1.5s-2.8,0.6-3.7,1.5c-1.3,1.3-1.6,3.2-1.6,5.2c0,2,0.3,3.8,1.6,5.2
			c0.9,0.9,2.1,1.5,3.7,1.5s2.8-0.6,3.7-1.5C302.1,140.6,302.3,138.8,302.3,136.8 M288.1,143.3V135c0-1.5-0.4-2.7-1.3-3.6
			c-0.8-0.8-1.9-1.2-3.3-1.2c-1.4,0-2.7,0.5-3.6,1.6v-1.4h-1.9v13h1.9v-8c0-2.3,1.3-3.5,3.2-3.5c2,0,3.2,1.2,3.2,3.5v8H288.1z
			 M273.6,143.3V135c0-2.9-1.7-4.8-4.7-4.8c-1.4,0-2.7,0.5-3.6,1.6v-7.2h-1.9v18.7h1.9v-8c0-2.2,1.3-3.4,3.2-3.4
			c1.9,0,3.2,1.2,3.2,3.4v8H273.6z M260.1,141.5l-1.3-1.2c-1,1.1-1.7,1.5-3,1.5c-1.3,0-2.3-0.5-3-1.5c-0.6-0.8-0.8-1.8-0.8-3.5
			c0-1.6,0.2-2.6,0.8-3.5c0.7-1,1.7-1.5,3-1.5c1.2,0,2,0.4,3,1.4l1.3-1.2c-1.3-1.4-2.5-1.9-4.3-1.9c-3.3,0-5.7,2.2-5.7,6.6
			c0,4.4,2.5,6.6,5.7,6.6C257.6,143.4,258.8,143,260.1,141.5 M245.2,135.9h-6.8c0.1-1.1,0.1-1.5,0.4-2.2c0.5-1.2,1.7-1.9,3-1.9
			c1.4,0,2.5,0.8,3,1.9C245.1,134.4,245.1,134.8,245.2,135.9 M247.1,137.3v-0.9c0-3.8-2-6.3-5.3-6.3c-3.3,0-5.3,2.4-5.3,6.6
			c0,4.6,2.2,6.6,5.7,6.6c2.2,0,3.4-0.7,4.7-2l-1.3-1.1c-1,1-1.9,1.5-3.4,1.5c-2.5,0-3.8-1.6-3.8-4.5H247.1z M233.9,143.3v-1.6h-1
			c-1.2,0-1.8-0.7-1.8-1.9v-7.9h2.8v-1.4h-2.8v-4.1h-1.9v4.1h-1.6v1.4h1.6v8c0,1.9,1.1,3.5,3.3,3.5H233.9z M216.3,136.7
			c0,2.4-0.4,4.9-3.2,4.9c-2.8,0-3.2-2.4-3.2-4.9c0-2.4,0.4-4.9,3.2-4.9C215.9,131.9,216.3,134.3,216.3,136.7 M218.2,143.7v-13.4
			h-1.9v1.5c-1.1-1.4-2.2-1.7-3.6-1.7c-1.3,0-2.5,0.4-3.2,1.1c-1.3,1.3-1.6,3.3-1.6,5.4c0,2.1,0.3,4.1,1.6,5.4
			c0.7,0.7,1.8,1.2,3.1,1.2c1.4,0,2.6-0.3,3.6-1.7v2c0,2.2-1.1,4-3.6,4c-1.5,0-2.2-0.4-3.1-1.3l-1.2,1.2c1.4,1.2,2.4,1.7,4.4,1.7
			C216.2,149.2,218.2,146.9,218.2,143.7 M204.3,143.3V135c0-1.5-0.4-2.7-1.3-3.6c-0.8-0.8-1.9-1.2-3.3-1.2c-1.4,0-2.7,0.5-3.6,1.6
			v-1.4h-1.9v13h1.9v-8c0-2.3,1.3-3.5,3.2-3.5c2,0,3.2,1.2,3.2,3.5v8H204.3z M189.6,130.3h-1.9v12.9h1.9V130.3z M189.8,124.5h-2.1
			v2.1h2.1V124.5z M184.8,143.3l-5.2-8l4.4-5h-2.4l-5.8,6.7v-12.5h-1.9v18.7h1.9v-3.7l2.5-2.9l4.1,6.6H184.8z M171.8,131.4
			c-0.9-0.9-1.9-1.2-3.1-1.2c-1.5,0-2.9,0.7-3.6,1.7v-1.6h-1.9v13h1.9v-7.9c0-2,1.2-3.5,3.1-3.5c1,0,1.5,0.2,2.2,0.9L171.8,131.4z
			 M157.5,136.8c0,1.4-0.1,3.1-1,4c-0.6,0.6-1.4,0.9-2.4,0.9s-1.7-0.3-2.3-0.9c-0.9-0.9-1.1-2.6-1.1-4c0-1.4,0.1-3.1,1.1-4
			c0.6-0.6,1.4-0.9,2.3-0.9s1.8,0.3,2.4,0.9C157.4,133.7,157.5,135.4,157.5,136.8 M159.4,136.8c0-2-0.3-3.8-1.6-5.2
			c-0.9-0.9-2.1-1.5-3.7-1.5c-1.6,0-2.8,0.6-3.7,1.5c-1.3,1.3-1.6,3.2-1.6,5.2c0,2,0.3,3.8,1.6,5.2c0.9,0.9,2.1,1.5,3.7,1.5
			c1.6,0,2.8-0.6,3.7-1.5C159.1,140.6,159.4,138.8,159.4,136.8 M147.2,130.3h-2.1l-2.9,10.4l-3.4-10.4h-1.6l-3.4,10.4l-3-10.4h-2.1
			l4.1,13h1.8l3.4-10.1l3.4,10.1h1.8L147.2,130.3z M124.5,136.8c0,2.5-0.4,5-3.2,5s-3.3-2.4-3.3-5c0-2.5,0.4-5,3.3-5
			S124.5,134.3,124.5,136.8 M126.4,143.3v-18.7h-1.9v7.3c-1.1-1.3-2.2-1.7-3.7-1.7c-1.3,0-2.5,0.4-3.2,1.1c-1.3,1.3-1.6,3.5-1.6,5.5
			c0,2,0.3,4.2,1.6,5.5c0.7,0.7,1.8,1.1,3.2,1.1c1.4,0,2.6-0.3,3.7-1.7v1.6H126.4z M111.1,136.8c0,1.4-0.1,3.1-1,4
			c-0.6,0.6-1.4,0.9-2.4,0.9s-1.7-0.3-2.3-0.9c-0.9-0.9-1.1-2.6-1.1-4c0-1.4,0.1-3.1,1.1-4c0.6-0.6,1.4-0.9,2.3-0.9s1.8,0.3,2.4,0.9
			C111,133.7,111.1,135.4,111.1,136.8 M113,136.8c0-2-0.3-3.8-1.6-5.2c-0.9-0.9-2.1-1.5-3.7-1.5c-1.6,0-2.8,0.6-3.7,1.5
			c-1.3,1.3-1.6,3.2-1.6,5.2c0,2,0.3,3.8,1.6,5.2c0.9,0.9,2.1,1.5,3.7,1.5c1.6,0,2.8-0.6,3.7-1.5C112.7,140.6,113,138.8,113,136.8
			 M97.4,136.8c0,1.4-0.1,3.1-1,4c-0.6,0.6-1.4,0.9-2.4,0.9s-1.7-0.3-2.3-0.9c-0.9-0.9-1.1-2.6-1.1-4c0-1.4,0.1-3.1,1.1-4
			c0.6-0.6,1.4-0.9,2.3-0.9s1.8,0.3,2.4,0.9C97.4,133.7,97.4,135.4,97.4,136.8 M99.3,136.8c0-2-0.3-3.8-1.6-5.2
			c-0.9-0.9-2.1-1.5-3.7-1.5c-1.6,0-2.8,0.6-3.7,1.5c-1.3,1.3-1.6,3.2-1.6,5.2c0,2,0.3,3.8,1.6,5.2c0.9,0.9,2.1,1.5,3.7,1.5
			c1.6,0,2.8-0.6,3.7-1.5C99.1,140.6,99.3,138.8,99.3,136.8 M87.2,130.3h-2.1l-2.9,10.4l-3.4-10.4h-1.6l-3.4,10.4l-3-10.4h-2.1
			l4.1,13h1.8l3.4-10.1l3.4,10.1h1.8L87.2,130.3z"/>
	</g>
</g>
</svg>
