<svg width="188" version="1.1" id="Слой_1" xmlns="http://www.w3.org/2000/svg" xmlns:xlink="http://www.w3.org/1999/xlink" x="0px" y="0px"
	 viewBox="0 0 206.9 76.5" style="enable-background:new 0 0 206.9 76.5;" xml:space="preserve">
<style type="text/css">
	.st0{fill:#E3000B;}
	.st1{fill:#7A7B7A;}
</style>
<g>
	<g>
		<path class="st0" d="M28.7,38.3c0,1.3,0,1.8-0.4,2c-0.6,0.4-1.1,0.7-2,1.5c-0.7,0.6-1.2,1.5-2.1,1.5c-0.4,0-1.9-0.4-2.2-0.7
			c-0.5-0.3-1.1-0.5-1.1-2.4c0-2.3,0.5-4,0.3-8c-2.7,3.3-3.7,6.2-5.5,9.3c-0.4,0.7-1,1-1.4,1c-0.4,0-0.7-0.2-1-0.5
			c-0.5-0.6-0.4-1.1-1.1-1.8c-0.6-0.7-1-0.2-1.8-0.9c-0.5-0.5-0.6-1.5-0.6-2.1c0-1.8,0.2-1.8,0.5-2.6c1.5-2.2,3.8-5.5,9.3-11.7
			c-0.7-2.8-1.1-4.6-1.9-7.2c-0.1-0.3-0.3-1-0.3-1.7c0-0.5,0.5-1.1,1-1.5c1.1-0.7,1.8-1,3.4-1.7c0.7-0.3,1.3-0.4,1.7-0.4
			c0.8,0,0.9,0.5,1.1,1.1c0.5,1.8,1.1,3.7,1.5,5.4c2.2-2.5,4-3.8,5.9-5.8c0.3-0.3,0.6-0.6,1.2-0.6c0.7,0,1.1,0.5,2.1,2.7
			c0.4,0.8,0.8,2,0.8,3.2c0,2-1.1,1.7-8.2,9.4C28.4,30.1,28.7,35.4,28.7,38.3z"/>
		<path class="st0" d="M56.4,33.5c0.6,0,1.7,0,2.2,0.5c0.7,0.9,1.8,2.8,1.8,3.6c0,0.7-0.9,2.9-1.9,3.6c-1,0.8-2.5,0.5-4.8,0.5
			c-9.8,0-12.4,1.3-14.4,1.3c-1.5,0-1.8-0.7-2.6-1.9c-0.7-1.1-1.6-2.7-1.6-3.5c0-0.6,0-1.3,0.9-2c14-10.3,15.5-13.7,17.6-16.8
			c0.6-0.8-0.4-1.5-1.6-1c-1.6,0.7-3.9,2.3-6,2.3c-1.2,0-1.8-0.7-2.3-1.6c-1-1.5-2.1-2.6-2.1-3.9c0-0.7,1-1.3,1.8-1.7
			c3.4-1.6,6.8-3,10.4-3c3.4,0,9.8,2.4,9.8,8.5c0,4.8-4.2,10.5-11.8,15.4C54.2,33.8,55.1,33.5,56.4,33.5z"/>
		<path d="M104.1,40.4c0,0.6-0.2,1.2-0.7,1.6c-0.4,0.4-1,0.7-1.6,0.7c-0.6,0-1.2-0.2-1.6-0.7s-0.6-1-0.6-1.6V28.1
			c0-0.7-0.1-1.3-0.4-2c-0.3-0.6-0.6-1.2-1.1-1.6c-0.5-0.5-1-0.8-1.6-1.1c-0.6-0.3-1.3-0.4-2-0.4c-0.7,0-1.4,0.1-2,0.4
			c-0.6,0.3-1.2,0.6-1.6,1.1c-0.5,0.5-0.8,1-1.1,1.6c-0.3,0.6-0.4,1.3-0.4,2v12.2c0,0.6-0.2,1.2-0.7,1.6c-0.4,0.4-1,0.7-1.6,0.7
			c-0.6,0-1.2-0.2-1.6-0.7c-0.4-0.4-0.7-1-0.7-1.6V28.1c0-0.7-0.1-1.4-0.4-2c-0.3-0.6-0.6-1.2-1.1-1.6c-0.5-0.5-1-0.8-1.6-1.1
			c-0.6-0.3-1.3-0.4-2-0.4c-0.7,0-1.4,0.1-2,0.4c-0.6,0.3-1.2,0.6-1.6,1.1c-0.5,0.5-0.8,1-1.1,1.6c-0.3,0.6-0.4,1.3-0.4,2v12.2
			c0,0.6-0.2,1.2-0.7,1.6c-0.4,0.4-1,0.7-1.6,0.7c-0.6,0-1.2-0.2-1.6-0.7c-0.4-0.4-0.7-1-0.7-1.6V20.8c0-0.6,0.2-1.1,0.7-1.6
			c0.4-0.4,1-0.7,1.6-0.7c0.5,0,0.9,0.1,1.3,0.4s0.7,0.6,0.8,1.1c1.5-1,3.3-1.5,5.2-1.5c1.4,0,2.8,0.3,4,0.8
			c1.3,0.6,2.4,1.4,3.3,2.6c2-2.3,4.4-3.4,7.3-3.4c1.3,0,2.5,0.3,3.7,0.8c1.2,0.5,2.2,1.2,3.1,2.1c0.9,0.9,1.6,1.9,2.1,3.1
			c0.5,1.2,0.8,2.4,0.8,3.7V40.4z"/>
		<path d="M126.3,35.8c0.6,0,1.2,0.2,1.6,0.6c0.4,0.4,0.6,1,0.6,1.6c0,0.6-0.2,1.2-0.6,1.6c-2.2,1.9-4.8,2.9-7.9,2.9
			c-3.3,0-6.2-1.2-8.5-3.5s-3.5-5.2-3.5-8.5c0-3.3,1.2-6.2,3.5-8.5c2.3-2.3,5.2-3.5,8.5-3.5c3.3,0,6.1,1.2,8.5,3.5
			c1.2,1.2,2.1,2.5,2.6,3.9c0.6,1.4,0.9,3,0.9,4.6c0,0.6-0.2,1.2-0.7,1.6c-0.4,0.4-1,0.6-1.6,0.6h-17c0.2,0.8,0.6,1.5,1.1,2.2
			c0.5,0.7,1,1.2,1.7,1.7c0.6,0.5,1.3,0.8,2.1,1.1c0.8,0.3,1.6,0.4,2.4,0.4c0.9,0,1.8-0.1,2.6-0.4c0.8-0.3,1.5-0.7,2.2-1.3
			C125.2,36,125.7,35.9,126.3,35.8z M127.2,28.3c-0.2-0.8-0.6-1.5-1.1-2.2c-0.5-0.7-1-1.2-1.7-1.7c-0.6-0.5-1.3-0.8-2.1-1.1
			c-0.8-0.3-1.6-0.4-2.4-0.4s-1.6,0.1-2.4,0.4s-1.5,0.6-2.1,1.1c-0.6,0.5-1.2,1-1.7,1.7c-0.5,0.7-0.8,1.4-1.1,2.2H127.2z"/>
		<path d="M147.5,18.5c2.8,0,5.4,0.9,7.5,2.6V10.5c0-0.6,0.2-1.2,0.6-1.6c0.4-0.4,1-0.6,1.6-0.6c0.6,0,1.2,0.2,1.6,0.6
			c0.4,0.4,0.7,1,0.7,1.6v20.1c0,3.4-1.2,6.2-3.5,8.5c-2.4,2.3-5.2,3.5-8.5,3.5c-3.3,0-6.2-1.2-8.5-3.5c-2.3-2.3-3.5-5.2-3.5-8.5
			c0-3.3,1.2-6.2,3.5-8.5C141.3,19.7,144.2,18.5,147.5,18.5z M155,30.6c0-1-0.2-2-0.6-2.9c-0.4-0.9-0.9-1.7-1.6-2.4
			c-0.7-0.7-1.5-1.2-2.4-1.6c-0.9-0.4-1.9-0.6-2.9-0.6c-1.1,0-2,0.2-3,0.6c-0.9,0.4-1.7,0.9-2.4,1.6c-0.7,0.7-1.2,1.5-1.6,2.4
			c-0.4,0.9-0.6,1.9-0.6,2.9s0.2,2,0.6,2.9c0.4,0.9,0.9,1.7,1.6,2.4c0.7,0.7,1.5,1.2,2.4,1.6c0.9,0.4,1.9,0.6,3,0.6
			c1,0,2-0.2,2.9-0.6c0.9-0.4,1.7-0.9,2.4-1.6c0.7-0.7,1.2-1.5,1.6-2.4C154.8,32.6,155,31.6,155,30.6z"/>
		<path d="M169,14.3c0,0.7-0.3,1.4-0.8,1.9c-0.5,0.5-1.1,0.8-1.9,0.8s-1.4-0.3-1.9-0.8c-0.5-0.5-0.8-1.1-0.8-1.9s0.3-1.4,0.8-1.9
			s1.1-0.8,1.9-0.8s1.4,0.3,1.9,0.8S169,13.5,169,14.3z M164.2,40.4V20.8c0-0.6,0.2-1.2,0.7-1.6c0.4-0.4,1-0.7,1.6-0.7
			c0.6,0,1.1,0.2,1.6,0.7c0.4,0.4,0.7,1,0.7,1.6v19.6c0,0.6-0.2,1.2-0.7,1.6c-0.4,0.4-1,0.7-1.6,0.7c-0.6,0-1.1-0.2-1.6-0.7
			C164.4,41.5,164.2,41,164.2,40.4z"/>
		<path d="M192.8,40.4v-0.4c-1.1,0.9-2.2,1.5-3.5,2c-1.3,0.5-2.6,0.7-4,0.7c-3.3,0-6.2-1.2-8.5-3.5c-2.3-2.3-3.5-5.2-3.5-8.5
			c0-3.3,1.2-6.2,3.5-8.5c2.3-2.3,5.2-3.5,8.5-3.5c3.3,0,6.1,1.2,8.5,3.5c2.3,2.3,3.5,5.2,3.5,8.5v9.8c0,0.6-0.2,1.1-0.7,1.6
			c-0.4,0.4-1,0.7-1.6,0.7c-0.6,0-1.2-0.2-1.6-0.7C193.1,41.5,192.8,41,192.8,40.4z M185.3,23c-1.1,0-2,0.2-3,0.6
			c-0.9,0.4-1.7,0.9-2.4,1.6c-0.7,0.7-1.2,1.5-1.6,2.4c-0.4,0.9-0.6,1.9-0.6,2.9s0.2,2,0.6,2.9c0.4,0.9,0.9,1.7,1.6,2.4
			c0.7,0.7,1.5,1.2,2.4,1.6c0.9,0.4,1.9,0.6,3,0.6c1,0,2-0.2,2.9-0.6c0.9-0.4,1.7-0.9,2.4-1.6c0.7-0.7,1.2-1.5,1.6-2.4
			c0.4-0.9,0.6-1.9,0.6-2.9s-0.2-2-0.6-2.9c-0.4-0.9-0.9-1.7-1.6-2.4c-0.7-0.7-1.5-1.2-2.4-1.6C187.3,23.2,186.4,23,185.3,23z"/>
		<path class="st1" d="M13.4,62.8l-3.8-9c-0.1-0.1-0.1-0.2-0.1-0.4c0-0.2,0.1-0.4,0.2-0.6c0.2-0.2,0.3-0.2,0.6-0.2s0.4,0.1,0.6,0.2
			c0.1,0.1,0.1,0.2,0.2,0.3l3.2,7.6l3.2-7.6c0-0.1,0.1-0.2,0.2-0.3c0.1-0.2,0.3-0.2,0.5-0.2s0.4,0.1,0.6,0.2
			c0.2,0.2,0.2,0.3,0.2,0.6c0,0.1,0,0.3-0.1,0.4l-5.8,14c0,0.1-0.1,0.2-0.2,0.3c-0.2,0.2-0.3,0.2-0.6,0.2s-0.4-0.1-0.6-0.2
			c-0.2-0.2-0.2-0.3-0.2-0.6c0-0.1,0-0.3,0.1-0.4L13.4,62.8z"/>
		<path class="st1" d="M25,63l-2.4-7.1l-2.4,7.2c0,0.1-0.1,0.2-0.2,0.2c-0.2,0.1-0.3,0.2-0.6,0.2s-0.4-0.1-0.6-0.2
			c-0.2-0.2-0.2-0.3-0.2-0.6c0-0.1,0-0.2,0.1-0.3l3.1-9.3c0-0.1,0.1-0.2,0.2-0.3c0.1-0.1,0.3-0.2,0.5-0.2s0.4,0.1,0.6,0.2
			c0.1,0.1,0.1,0.2,0.2,0.3l2.4,7.2l2.4-7.2c0-0.1,0.1-0.2,0.2-0.3c0.1-0.1,0.3-0.2,0.5-0.2s0.4,0.1,0.6,0.2
			c0.1,0.1,0.1,0.2,0.2,0.3l3.1,9.3c0,0.1,0.1,0.2,0.1,0.3c0,0.2-0.1,0.4-0.2,0.6c-0.2,0.2-0.3,0.2-0.6,0.2c-0.2,0-0.4-0.1-0.5-0.2
			c-0.1-0.1-0.1-0.1-0.2-0.2l-2.4-7.2L26.5,63c0,0.1-0.1,0.3-0.2,0.4c-0.2,0.1-0.3,0.2-0.6,0.2s-0.4-0.1-0.5-0.2
			C25.1,63.3,25,63.2,25,63z"/>
		<path class="st1" d="M35.6,58.9v3.9c0,0.2-0.1,0.4-0.2,0.6c-0.2,0.2-0.3,0.2-0.6,0.2s-0.4-0.1-0.6-0.2C34.1,63.2,34,63,34,62.8
			v-9.4c0-0.2,0.1-0.4,0.2-0.6c0.2-0.2,0.3-0.2,0.6-0.2s0.4,0.1,0.6,0.2c0.2,0.2,0.2,0.3,0.2,0.6v3.9h5.9v-3.9
			c0-0.2,0.1-0.4,0.2-0.6c0.2-0.2,0.3-0.2,0.6-0.2s0.4,0.1,0.6,0.2c0.2,0.2,0.2,0.3,0.2,0.6v9.4c0,0.2-0.1,0.4-0.2,0.6
			c-0.2,0.2-0.3,0.2-0.6,0.2s-0.4-0.1-0.6-0.2c-0.2-0.2-0.2-0.3-0.2-0.6v-3.9H35.6z"/>
		<path class="st1" d="M55.2,58.1c0,1.5-0.5,2.8-1.6,3.9c-1.1,1.1-2.4,1.6-3.9,1.6s-2.8-0.5-3.9-1.6c-1.1-1.1-1.6-2.4-1.6-3.9
			c0-1.5,0.5-2.8,1.6-3.9c1.1-1.1,2.4-1.6,3.9-1.6s2.8,0.5,3.9,1.6C54.7,55.3,55.2,56.6,55.2,58.1z M49.7,54.2c-1.1,0-2,0.4-2.8,1.1
			s-1.1,1.7-1.1,2.8c0,1.1,0.4,2,1.1,2.8s1.7,1.1,2.8,1.1s2-0.4,2.8-1.1s1.1-1.7,1.1-2.8c0-1.1-0.4-2-1.1-2.8S50.8,54.2,49.7,54.2z"
			/>
		<path class="st1" d="M63.5,57.7v-4.3c0-0.2,0.1-0.4,0.2-0.6c0.2-0.2,0.3-0.2,0.6-0.2s0.4,0.1,0.6,0.2c0.2,0.2,0.2,0.3,0.2,0.6v4.3
			l5.7-4.9c0.1-0.1,0.3-0.2,0.5-0.2c0.2,0,0.4,0.1,0.6,0.2c0.2,0.2,0.2,0.3,0.2,0.6S72,53.9,71.9,54L67,58.1l4.9,4.2
			c0.1,0.2,0.2,0.3,0.2,0.6s-0.1,0.4-0.2,0.6c-0.2,0.2-0.3,0.2-0.6,0.2c-0.2,0-0.4-0.1-0.5-0.2l-5-4.3L65,59.8v3.1
			c0,0.2-0.1,0.4-0.2,0.6c-0.2,0.2-0.3,0.2-0.6,0.2s-0.4-0.1-0.6-0.2c-0.2-0.2-0.2-0.3-0.2-0.6v-3.1l-0.7-0.6l-5,4.3
			c-0.1,0.1-0.3,0.2-0.5,0.2c-0.2,0-0.4-0.1-0.6-0.2c-0.2-0.2-0.2-0.3-0.2-0.6s0.1-0.4,0.2-0.6l4.9-4.2L56.7,54
			c-0.1-0.2-0.2-0.3-0.2-0.5s0.1-0.4,0.2-0.6c0.2-0.2,0.3-0.2,0.6-0.2c0.2,0,0.4,0.1,0.5,0.2L63.5,57.7z"/>
		<path class="st1" d="M82.3,62c-1.1,1.1-2.4,1.6-3.9,1.6s-2.8-0.5-3.9-1.6c-1.1-1.1-1.6-2.4-1.6-3.9c0-1.5,0.5-2.8,1.6-3.9
			c1.1-1.1,2.4-1.6,3.9-1.6s2.8,0.5,3.9,1.6c1.1,1.1,1.6,2.4,1.6,3.9v4.7c0,0.2-0.1,0.4-0.2,0.6c-0.2,0.2-0.3,0.2-0.6,0.2
			s-0.4-0.1-0.6-0.2c-0.2-0.2-0.2-0.3-0.2-0.6V62z M78.4,54.2c-1.1,0-2,0.4-2.8,1.1s-1.1,1.7-1.1,2.8c0,1.1,0.4,2,1.1,2.8
			s1.7,1.1,2.8,1.1s2-0.4,2.8-1.1s1.1-1.7,1.1-2.8c0-1.1-0.4-2-1.1-2.8S79.5,54.2,78.4,54.2z"/>
		<path class="st1" d="M93.6,61c0.2,0,0.4,0.1,0.6,0.2c0.2,0.2,0.2,0.3,0.2,0.6s-0.1,0.4-0.2,0.6c-1,0.9-2.2,1.3-3.6,1.3
			c-1.5,0-2.8-0.5-3.9-1.6c-1.1-1.1-1.6-2.4-1.6-3.9c0-1.5,0.5-2.8,1.6-3.9c1.1-1.1,2.4-1.6,3.9-1.6s2.8,0.5,3.9,1.6
			c1.1,1.1,1.6,2.4,1.6,3.9c0,0.2-0.1,0.4-0.2,0.6c-0.2,0.2-0.3,0.2-0.6,0.2h-8.5c0.1,0.7,0.5,1.4,1.1,2c0.8,0.8,1.7,1.1,2.8,1.1
			c1,0,1.8-0.3,2.5-0.9C93.3,61,93.4,61,93.6,61z M94.4,57.4c-0.1-0.7-0.5-1.4-1.1-2c-0.8-0.8-1.7-1.1-2.8-1.1s-2,0.4-2.8,1.1
			c-0.6,0.6-0.9,1.2-1.1,2H94.4z"/>
		<path class="st1" d="M103.6,63l-2.4-7.1l-2.4,7.2c0,0.1-0.1,0.2-0.2,0.2c-0.2,0.1-0.3,0.2-0.6,0.2s-0.4-0.1-0.6-0.2
			c-0.2-0.2-0.2-0.3-0.2-0.6c0-0.1,0-0.2,0.1-0.3l3.1-9.3c0-0.1,0.1-0.2,0.2-0.3c0.1-0.1,0.3-0.2,0.5-0.2s0.4,0.1,0.6,0.2
			c0.1,0.1,0.1,0.2,0.2,0.3l2.4,7.2l2.4-7.2c0-0.1,0.1-0.2,0.2-0.3c0.1-0.1,0.3-0.2,0.5-0.2s0.4,0.1,0.6,0.2
			c0.1,0.1,0.1,0.2,0.2,0.3l3.1,9.3c0,0.1,0.1,0.2,0.1,0.3c0,0.2-0.1,0.4-0.2,0.6c-0.2,0.2-0.3,0.2-0.6,0.2s-0.4-0.1-0.5-0.2
			c-0.1-0.1-0.1-0.1-0.2-0.2l-2.4-7.2l-2.4,7.1c0,0.1-0.1,0.3-0.2,0.4c-0.2,0.1-0.3,0.2-0.6,0.2s-0.4-0.1-0.5-0.2
			C103.7,63.3,103.6,63.2,103.6,63z"/>
		<path class="st1" d="M118.2,53.5c0-0.2,0.1-0.4,0.2-0.6c0.2-0.2,0.3-0.2,0.6-0.2s0.4,0.1,0.6,0.2c0.2,0.2,0.2,0.3,0.2,0.6v0.6
			c1-0.9,2.1-1.4,3.5-1.4c1.4,0,2.6,0.5,3.6,1.5c1,1,1.5,2.2,1.5,3.6v5.1c0,0.2-0.1,0.4-0.2,0.6c-0.2,0.2-0.3,0.2-0.6,0.2
			s-0.4-0.1-0.6-0.2c-0.2-0.2-0.2-0.3-0.2-0.6v-5.1c0-1-0.3-1.8-1-2.5c-0.7-0.7-1.5-1-2.5-1c-1,0-1.8,0.3-2.5,1
			c-0.7,0.7-1,1.5-1,2.5v5.1c0,0.2-0.1,0.4-0.2,0.6c-0.2,0.2-0.3,0.2-0.6,0.2s-0.4-0.1-0.6-0.2c-0.2-0.2-0.2-0.3-0.2-0.6V53.5z"/>
		<path class="st1" d="M131.2,67.5c0,0.2-0.1,0.4-0.2,0.6c-0.2,0.2-0.3,0.2-0.6,0.2s-0.4-0.1-0.6-0.2c-0.2-0.2-0.2-0.3-0.2-0.6v-9.4
			c0-1.5,0.5-2.8,1.6-3.9c1.1-1.1,2.4-1.6,3.9-1.6c1.5,0,2.8,0.5,3.9,1.6c1.1,1.1,1.6,2.4,1.6,3.9c0,1.5-0.5,2.8-1.6,3.9
			c-1.1,1.1-2.4,1.6-3.9,1.6c-1.5,0-2.8-0.5-3.9-1.6c0,0,0,0,0,0V67.5z M131.2,58.1c0,1.1,0.4,2,1.1,2.8s1.7,1.1,2.8,1.1
			c1.1,0,2-0.4,2.8-1.1s1.1-1.7,1.1-2.8c0-1.1-0.4-2-1.1-2.8s-1.7-1.1-2.8-1.1c-1.1,0-2,0.4-2.8,1.1S131.2,57.1,131.2,58.1z"/>
		<path class="st1" d="M152,62.8c0,0.2-0.1,0.4-0.2,0.6c-0.2,0.2-0.3,0.2-0.6,0.2s-0.4-0.1-0.6-0.2c-0.2-0.2-0.2-0.3-0.2-0.6v-0.6
			c-1,0.9-2.1,1.4-3.5,1.4c-1.4,0-2.6-0.5-3.6-1.5c-1-1-1.5-2.2-1.5-3.6v-5.1c0-0.2,0.1-0.4,0.2-0.6c0.2-0.2,0.3-0.2,0.6-0.2
			s0.4,0.1,0.6,0.2c0.2,0.2,0.2,0.3,0.2,0.6v5.1c0,1,0.3,1.8,1,2.5c0.7,0.7,1.5,1,2.5,1c1,0,1.8-0.3,2.5-1c0.7-0.7,1-1.5,1-2.5v-5.1
			c0-0.2,0.1-0.4,0.2-0.6c0.2-0.2,0.3-0.2,0.6-0.2s0.4,0.1,0.6,0.2c0.2,0.2,0.2,0.3,0.2,0.6V62.8z"/>
		<path class="st1" d="M154.8,54.3C154.8,54.3,154.8,54.3,154.8,54.3c1.1-1.1,2.4-1.6,3.9-1.6c1.5,0,2.8,0.5,3.9,1.6
			c1.1,1.1,1.6,2.4,1.6,3.9c0,1.5-0.5,2.8-1.6,3.9c-1.1,1.1-2.4,1.6-3.9,1.6c-1.5,0-2.8-0.5-3.9-1.6c-1.1-1.1-1.6-2.4-1.6-3.9v-3.9
			c0-1.5,0.5-2.8,1.6-3.9c1.1-1.1,2.4-1.6,3.9-1.6h0.4c1.1,0,2.2-0.2,3.1-0.7c0.1-0.1,0.2-0.1,0.4-0.1c0.2,0,0.4,0.1,0.6,0.2
			c0.2,0.2,0.2,0.3,0.2,0.6s-0.1,0.4-0.2,0.5c-0.1,0.1-0.1,0.1-0.2,0.2c-1.1,0.6-2.4,0.9-3.8,0.9h-0.4c-1.1,0-2,0.4-2.8,1.1
			S154.8,53.2,154.8,54.3L154.8,54.3z M162.6,58.1c0-1.1-0.4-2-1.1-2.8s-1.7-1.1-2.8-1.1c-1.1,0-2,0.4-2.8,1.1s-1.1,1.7-1.1,2.8
			c0,1.1,0.4,2,1.1,2.8s1.7,1.1,2.8,1.1c1.1,0,2-0.4,2.8-1.1S162.6,59.2,162.6,58.1z"/>
		<path class="st1" d="M167,53.5v3.9h3.5c0.9,0,1.6,0.3,2.2,0.9c0.6,0.6,0.9,1.3,0.9,2.2c0,0.9-0.3,1.6-0.9,2.2
			c-0.6,0.6-1.3,0.9-2.2,0.9h-4.3c-0.2,0-0.4-0.1-0.6-0.2c-0.2-0.2-0.2-0.3-0.2-0.6v-9.4c0-0.2,0.1-0.4,0.2-0.5
			c0.2-0.2,0.3-0.2,0.5-0.2s0.4,0.1,0.6,0.2C166.9,53.1,167,53.2,167,53.5z M170.5,62c0.4,0,0.8-0.2,1.1-0.5
			c0.3-0.3,0.5-0.7,0.5-1.1s-0.2-0.8-0.5-1.1c-0.3-0.3-0.7-0.5-1.1-0.5H167V62H170.5z M174.8,53.5c0-0.2,0.1-0.4,0.2-0.6
			c0.2-0.2,0.3-0.2,0.6-0.2s0.4,0.1,0.6,0.2c0.2,0.2,0.2,0.3,0.2,0.6v9.4c0,0.2-0.1,0.4-0.2,0.6c-0.2,0.2-0.3,0.2-0.6,0.2
			s-0.4-0.1-0.6-0.2c-0.2-0.2-0.2-0.3-0.2-0.6V53.5z"/>
		<path class="st1" d="M183.4,53.1l4.3,9.4c0,0.1,0.1,0.2,0.1,0.3c0,0.2-0.1,0.4-0.2,0.6c-0.2,0.2-0.3,0.2-0.6,0.2s-0.4-0.1-0.5-0.2
			c-0.1-0.1-0.1-0.1-0.2-0.2l-3.6-7.8l-3.6,7.8c0,0.1-0.1,0.2-0.1,0.2c-0.2,0.1-0.3,0.2-0.6,0.2s-0.4-0.1-0.6-0.2
			c-0.2-0.2-0.2-0.3-0.2-0.6c0-0.1,0-0.2,0.1-0.3l4.3-9.4c0-0.1,0.1-0.1,0.1-0.2c0.1-0.1,0.3-0.2,0.6-0.2c0.2,0,0.4,0.1,0.6,0.2
			C183.3,53,183.4,53,183.4,53.1z"/>
		<path class="st1" d="M190.6,53.5v3.9h3.5c0.9,0,1.6,0.3,2.2,0.9c0.6,0.6,0.9,1.3,0.9,2.2c0,0.9-0.3,1.6-0.9,2.2
			c-0.6,0.6-1.3,0.9-2.2,0.9h-4.3c-0.2,0-0.4-0.1-0.6-0.2c-0.2-0.2-0.2-0.3-0.2-0.6v-9.4c0-0.2,0.1-0.4,0.2-0.5
			c0.1-0.2,0.3-0.2,0.5-0.2s0.4,0.1,0.6,0.2C190.6,53.1,190.6,53.2,190.6,53.5z M194.2,62c0.4,0,0.8-0.2,1.1-0.5
			c0.3-0.3,0.5-0.7,0.5-1.1s-0.2-0.8-0.5-1.1c-0.3-0.3-0.7-0.5-1.1-0.5h-3.5V62H194.2z"/>
	</g>
</g>
</svg>
